<svg width="170" height="188" viewBox="0 0 170 188" fill="none" xmlns="http://www.w3.org/2000/svg">
<path d="M78.94 100.85L84.79 95C85.4473 94.3646 85.83 93.4973 85.8562 92.5835C85.8823 91.6697 85.5499 90.7819 84.93 90.11L83.11 88.29L80.82 86C84.4243 86.5084 88.0976 86.1663 91.5461 85.0012C94.9946 83.8361 98.1226 81.8802 100.68 79.29L109.88 70.11C110.1 69.9462 110.308 69.7657 110.5 69.57L115.23 64.85C115.985 64.1363 116.507 63.2109 116.726 62.1954C116.946 61.1799 116.853 60.1218 116.46 59.16C115.499 58.71 114.424 58.5647 113.378 58.7434C112.333 58.9222 111.367 59.4165 110.61 60.16L113.61 57.16C114.583 56.1853 115.13 54.8639 115.129 53.4864C115.128 52.109 114.58 50.7883 113.605 49.815C112.63 48.8416 111.309 48.2953 109.931 48.2963C108.554 48.2972 107.233 48.8453 106.26 49.82L107.49 48.6C108.115 47.9443 108.558 47.136 108.773 46.2559C108.989 45.3758 108.969 44.4545 108.717 43.5842C108.465 42.7138 107.989 41.9248 107.337 41.2959C106.685 40.6669 105.879 40.2201 105 40L114.8 30.22C115.281 29.7374 115.663 29.1647 115.923 28.5346C116.183 27.9046 116.316 27.2295 116.315 26.5479C116.314 25.8663 116.179 25.1916 115.917 24.5623C115.656 23.9329 115.273 23.3613 114.79 22.88C114.307 22.3987 113.735 22.0172 113.105 21.7572C112.475 21.4972 111.799 21.3639 111.118 21.3648C110.436 21.3657 109.762 21.5009 109.132 21.7626C108.503 22.0243 107.931 22.4074 107.45 22.89L82 48.32L81.84 48.13C80.62 46.64 79.26 44.93 77.84 43.01C75.1378 39.1844 72.1278 35.5858 68.84 32.25L66.44 30C65.468 29.0253 64.1486 28.4767 62.7721 28.4748C61.3955 28.4729 60.0747 29.018 59.1 29.99C58.1253 30.962 57.5767 32.2814 57.5748 33.6579C57.5729 35.0344 58.118 36.3553 59.09 37.33C61.8186 40.1677 63.79 43.646 64.8227 47.4449C65.8554 51.2438 65.9164 55.2413 65 59.07C64.929 59.3762 64.8789 59.6869 64.85 60C64.023 63.1925 63.9069 66.5277 64.51 69.77L62.57 67.83C61.8867 67.1748 60.9766 66.809 60.03 66.809C59.0833 66.809 58.1733 67.1748 57.49 67.83L51.64 73.67C50.9689 74.3429 50.592 75.2546 50.592 76.205C50.592 77.1554 50.9689 78.067 51.64 78.74L74 101C74.3351 101.324 74.7314 101.577 75.1658 101.746C75.6001 101.914 76.0637 101.994 76.5294 101.981C76.9951 101.968 77.4535 101.862 77.8778 101.67C78.302 101.477 78.6835 101.202 79 100.86L78.94 100.85Z" fill="#D40119"/>
<path d="M117.9 60.23C117.472 59.8048 116.966 59.4654 116.41 59.23C116.803 60.1918 116.896 61.2499 116.676 62.2654C116.457 63.2809 115.935 64.2063 115.18 64.92L110.46 69.64C110.262 69.8334 110.051 70.0138 109.83 70.18L100.68 79.36C98.1169 81.939 94.986 83.8827 91.5376 85.0356C88.0892 86.1886 84.4189 86.5188 80.82 86L83.11 88.28C86.7447 88.9515 90.488 88.7308 94.0186 87.637C97.5492 86.5431 100.762 84.6088 103.38 82L112.59 72.82C112.813 72.6591 113.02 72.4784 113.21 72.28L117.94 67.57C118.42 67.0908 118.8 66.5218 119.06 65.8955C119.319 65.2692 119.453 64.5979 119.453 63.92C119.453 63.242 119.319 62.5708 119.06 61.9445C118.8 61.3182 118.42 60.7492 117.94 60.27L117.9 60.23Z" fill="white"/>
<path d="M87.45 92.56L84.93 90.11C85.5499 90.7819 85.8823 91.6697 85.8562 92.5835C85.83 93.4973 85.4473 94.3646 84.79 95L78.94 100.84C78.3041 101.513 77.4282 101.907 76.5029 101.937C75.5777 101.967 74.6781 101.63 74 101L76.47 103.57C77.1472 104.237 78.0595 104.611 79.01 104.611C79.9605 104.611 80.8728 104.237 81.55 103.57L87.41 97.69C88.0891 97.025 88.4768 96.1178 88.4881 95.1674C88.4993 94.217 88.1332 93.3009 87.47 92.62L87.45 92.56Z" fill="white"/>
<path d="M87.7 74.61C87.539 74.6113 87.3792 74.5807 87.2301 74.52C87.0809 74.4593 86.9452 74.3696 86.8309 74.2562C86.7165 74.1428 86.6258 74.0078 86.5638 73.8592C86.5019 73.7105 86.47 73.551 86.47 73.39C86.471 73.0639 86.6003 72.7514 86.83 72.52C88.9846 70.3833 90.2399 67.5032 90.3385 64.4704C90.437 61.4376 89.3713 58.482 87.36 56.21C83.5623 52.2974 80.0311 48.1347 76.79 43.75C74.0883 39.9972 71.0994 36.4599 67.85 33.17L65.56 30.83C64.7842 30.136 63.7684 29.7719 62.7283 29.8148C61.6883 29.8578 60.706 30.3044 59.99 31.06C59.3159 31.7837 58.9411 32.736 58.9411 33.725C58.9411 34.714 59.3159 35.6663 59.99 36.39L60.07 36.49C62.9709 39.5397 65.0447 43.2798 66.0947 47.3557C67.1448 51.4317 67.1363 55.7083 66.07 59.78C65.9984 60.1049 65.8007 60.388 65.5203 60.5671C65.2399 60.7462 64.8999 60.8066 64.575 60.735C64.2501 60.6634 63.967 60.4656 63.7879 60.1853C63.6088 59.9049 63.5484 59.5649 63.62 59.24V59.18C64.5792 55.5055 64.582 51.6466 63.628 47.9707C62.674 44.2948 60.7951 40.9243 58.17 38.18L58.11 38.12C57.0421 36.8875 56.4833 35.2949 56.5469 33.6654C56.6105 32.0359 57.2918 30.4917 58.4525 29.3463C59.6132 28.2008 61.1664 27.54 62.7965 27.498C64.4267 27.456 66.0118 28.0359 67.23 29.12L69.52 31.39C72.8655 34.773 75.9353 38.4179 78.7 42.29C81.8658 46.592 85.3311 50.6655 89.07 54.48C91.526 57.2099 92.8437 60.7765 92.7525 64.4475C92.6614 68.1184 91.1684 71.6152 88.58 74.22C88.4682 74.3422 88.3323 74.44 88.1808 74.5071C88.0294 74.5742 87.8657 74.6092 87.7 74.61V74.61Z" fill="black"/>
<path d="M82 49.56C81.6754 49.5708 81.3597 49.4528 81.1218 49.2317C80.8839 49.0107 80.743 48.7045 80.73 48.38C80.7255 48.2047 80.7578 48.0304 80.825 47.8685C80.8922 47.7065 80.9927 47.5605 81.12 47.44L106.58 22C107.816 20.9947 109.382 20.4849 110.972 20.5696C112.563 20.6544 114.066 21.3276 115.188 22.4585C116.31 23.5894 116.972 25.0972 117.044 26.6887C117.117 28.2802 116.595 29.8418 115.58 31.07L105.79 40.85C105.555 41.0796 105.239 41.2082 104.91 41.2082C104.581 41.2082 104.265 41.0796 104.03 40.85C103.914 40.7356 103.822 40.5993 103.76 40.4491C103.697 40.2989 103.664 40.1378 103.664 39.975C103.664 39.8122 103.697 39.651 103.76 39.5008C103.822 39.3506 103.914 39.2144 104.03 39.1L113.83 29.32C114.224 28.9596 114.542 28.5229 114.763 28.0364C114.983 27.5498 115.103 27.0235 115.115 26.4894C115.126 25.9552 115.029 25.4242 114.83 24.9286C114.63 24.4329 114.332 23.9829 113.954 23.6058C113.575 23.2287 113.124 22.9323 112.628 22.7345C112.131 22.5367 111.6 22.4417 111.066 22.4551C110.532 22.4686 110.006 22.5903 109.52 22.8129C109.035 23.0354 108.599 23.3542 108.24 23.75L82.84 49.2C82.6166 49.4234 82.3158 49.5523 82 49.56V49.56Z" fill="black"/>
<path d="M87.19 89.88C85.8495 89.8802 84.5113 89.7664 83.19 89.54C82.8651 89.4843 82.5757 89.3018 82.3853 89.0327C82.195 88.7636 82.1193 88.4299 82.175 88.105C82.2307 87.7801 82.4132 87.4906 82.6823 87.3003C82.9514 87.1099 83.2851 87.0343 83.61 87.09C87.009 87.6711 90.4977 87.4296 93.7842 86.3857C97.0707 85.3418 100.059 83.5259 102.5 81.09L113.96 69.66C114.075 69.5444 114.211 69.4526 114.362 69.3898C114.512 69.327 114.674 69.2945 114.836 69.294C114.999 69.2935 115.161 69.3252 115.312 69.3871C115.462 69.4491 115.599 69.5401 115.715 69.655C115.831 69.7699 115.922 69.9064 115.985 70.0568C116.048 70.2072 116.081 70.3685 116.081 70.5314C116.081 70.6944 116.05 70.8559 115.988 71.0066C115.926 71.1574 115.835 71.2944 115.72 71.41L104.23 82.85C99.7023 87.3532 93.5759 89.8807 87.19 89.88V89.88Z" fill="black"/>
<path d="M64.47 70.69C64.18 70.6951 63.8975 70.5975 63.6724 70.4146C63.4473 70.2316 63.2942 69.9749 63.24 69.69C62.658 66.1921 62.8423 62.6097 63.78 59.19C63.8682 58.8773 64.0738 58.6108 64.3539 58.4461C64.6339 58.2814 64.9668 58.2312 65.2829 58.306C65.5991 58.3809 65.8741 58.575 66.0506 58.8477C66.227 59.1205 66.2913 59.4509 66.23 59.77V59.85C65.3886 62.9212 65.2214 66.1381 65.74 69.28C65.7687 69.439 65.7655 69.6021 65.7306 69.7599C65.6957 69.9177 65.6299 70.0669 65.5369 70.199C65.4438 70.3311 65.3255 70.4435 65.1887 70.5295C65.0519 70.6155 64.8994 70.6734 64.74 70.7H64.45L64.47 70.69Z" fill="black"/>
<path d="M79.06 105.8C78.4259 105.803 77.7974 105.681 77.2105 105.441C76.6237 105.201 76.09 104.847 75.64 104.4L50.76 79.58C49.8658 78.6662 49.3651 77.4385 49.3651 76.16C49.3651 74.8815 49.8658 73.6538 50.76 72.74L56.62 66.89C57.5254 65.9875 58.7516 65.4807 60.03 65.4807C61.3084 65.4807 62.5346 65.9875 63.44 66.89L88.33 91.7C89.2236 92.6121 89.724 93.8381 89.724 95.115C89.724 96.3919 89.2236 97.6179 88.33 98.53L82.48 104.37C81.5719 105.277 80.3435 105.791 79.06 105.8V105.8ZM52.51 77.89L77.39 102.65C77.8336 103.088 78.4317 103.333 79.055 103.333C79.6783 103.333 80.2765 103.088 80.72 102.65L86.58 96.81C86.7992 96.5917 86.9732 96.3322 87.0918 96.0465C87.2105 95.7607 87.2716 95.4544 87.2716 95.145C87.2716 94.8356 87.2105 94.5293 87.0918 94.2435C86.9732 93.9578 86.7992 93.6983 86.58 93.48L61.72 68.66C61.2765 68.2221 60.6783 67.9766 60.055 67.9766C59.4317 67.9766 58.8336 68.2221 58.39 68.66L52.54 74.5C52.3208 74.7183 52.1469 74.9778 52.0282 75.2635C51.9095 75.5493 51.8484 75.8556 51.8484 76.165C51.8484 76.4744 51.9095 76.7807 52.0282 77.0665C52.1469 77.3522 52.3208 77.6117 52.54 77.83L52.51 77.89Z" fill="black"/>
<path d="M80.8 98.37C80.6333 98.3753 80.4673 98.346 80.3124 98.2841C80.1575 98.2221 80.0171 98.1288 79.9 98.01L76.8 94.91C76.5984 94.668 76.4948 94.3592 76.5095 94.0446C76.5242 93.7299 76.6563 93.4322 76.8797 93.2101C77.103 92.988 77.4015 92.8576 77.7162 92.8446C78.0309 92.8317 78.3391 92.937 78.58 93.14L81.68 96.22C81.8744 96.3878 82.0109 96.6127 82.0701 96.8627C82.1292 97.1126 82.1079 97.3749 82.0093 97.612C81.9107 97.8492 81.7397 98.0492 81.5208 98.1835C81.3018 98.3178 81.0461 98.3795 80.79 98.36L80.8 98.37Z" fill="black"/>
<path d="M116.39 53.95L116.21 53.93L116.22 53.88L116.39 53.9V53.95Z" fill="black"/>
<path d="M109.5 75C108.223 75.0051 106.974 74.6287 105.912 73.9191C104.851 73.2095 104.025 72.199 103.542 71.0171C103.058 69.8352 102.939 68.5359 103.198 67.2857C103.458 66.0355 104.086 64.8913 105 64L109.72 59.29C110.923 58.0846 112.555 57.4064 114.258 57.4045C115.961 57.4026 117.595 58.0773 118.8 59.28C120.005 60.4828 120.684 62.1151 120.686 63.8179C120.687 65.5208 120.013 67.1546 118.81 68.36L114 73.07C113.416 73.6744 112.717 74.1564 111.944 74.4877C111.172 74.8191 110.341 74.9933 109.5 75V75ZM114.23 60C113.712 59.9962 113.198 60.096 112.719 60.2934C112.24 60.4909 111.805 60.7822 111.44 61.15L106.71 65.86C106.342 66.2244 106.05 66.6577 105.85 67.1351C105.649 67.6125 105.545 68.1246 105.543 68.6423C105.541 69.16 105.64 69.6731 105.836 70.1523C106.032 70.6314 106.321 71.0673 106.685 71.435C107.049 71.8027 107.483 72.095 107.96 72.2953C108.437 72.4955 108.95 72.5998 109.467 72.6021C109.985 72.6045 110.498 72.5048 110.977 72.3088C111.456 72.1129 111.892 71.8244 112.26 71.46L116.98 66.76C117.347 66.3949 117.638 65.9609 117.836 65.4829C118.035 65.005 118.137 64.4926 118.137 63.975C118.137 63.4575 118.035 62.945 117.836 62.4671C117.638 61.9892 117.347 61.5552 116.98 61.19C116.235 60.451 115.229 60.0344 114.18 60.03L114.23 60Z" fill="black"/>
<path d="M105.16 64.71C103.88 64.7232 102.625 64.3526 101.557 63.6461C100.489 62.9395 99.6573 61.9294 99.1688 60.7458C98.6804 59.5623 98.5575 58.2595 98.8162 57.0055C99.0748 55.7515 99.7031 54.6037 100.62 53.71L105.33 49.01C105.929 48.4145 106.639 47.9427 107.42 47.6217C108.201 47.3006 109.038 47.1366 109.883 47.1389C110.727 47.1412 111.563 47.3098 112.342 47.6352C113.122 47.9605 113.829 48.4362 114.425 49.035C115.021 49.6338 115.492 50.3441 115.813 51.1253C116.134 51.9064 116.298 52.7431 116.296 53.5877C116.294 54.4322 116.125 55.2681 115.8 56.0474C115.474 56.8268 114.999 57.5345 114.4 58.13L109.67 62.83C109.08 63.4257 108.377 63.8985 107.603 64.2212C106.829 64.5438 105.999 64.71 105.16 64.71V64.71ZM109.89 49.71C109.372 49.7015 108.858 49.7981 108.378 49.994C107.899 50.19 107.464 50.4812 107.1 50.85L102.37 55.57C101.995 55.9272 101.694 56.3548 101.484 56.8282C101.275 57.3017 101.16 57.8119 101.148 58.3296C101.135 58.8472 101.225 59.3623 101.411 59.8454C101.598 60.3285 101.878 60.7701 102.235 61.145C102.592 61.5199 103.02 61.8208 103.493 62.0305C103.967 62.2402 104.477 62.3546 104.995 62.3671C105.512 62.3797 106.027 62.2901 106.51 62.1036C106.993 61.9171 107.435 61.6372 107.81 61.28L107.96 61.13L112.67 56.42C113.408 55.6812 113.823 54.6795 113.823 53.635C113.823 52.5906 113.408 51.5888 112.67 50.85C111.922 50.1184 110.917 49.7091 109.87 49.71H109.89Z" fill="black"/>
<path d="M99.08 56.15C97.8113 56.153 96.5702 55.7793 95.5139 55.0765C94.4577 54.3736 93.6338 53.373 93.1466 52.2016C92.6594 51.0301 92.5307 49.7404 92.777 48.4958C93.0233 47.2512 93.6334 46.1077 94.53 45.21L99.25 40.49C100.41 39.2422 102.019 38.5064 103.722 38.4445C105.424 38.3826 107.082 38.9997 108.33 40.16C109.578 41.3203 110.314 42.9288 110.376 44.6317C110.437 46.3345 109.82 47.9922 108.66 49.24L108.34 49.56L103.62 54.28C102.408 55.4702 100.779 56.141 99.08 56.15V56.15ZM103.8 41.09C102.751 41.0944 101.745 41.511 101 42.25L96.28 47C95.5646 47.7463 95.1703 48.7433 95.1817 49.777C95.193 50.8107 95.6092 51.7987 96.3408 52.5291C97.0725 53.2594 98.0613 53.6738 99.095 53.6833C100.129 53.6929 101.125 53.2968 101.87 52.58L106.58 47.86C107.124 47.3066 107.494 46.6051 107.642 45.8431C107.79 45.081 107.71 44.2923 107.412 43.5753C107.115 42.8584 106.612 42.2451 105.968 41.8119C105.324 41.3788 104.566 41.1451 103.79 41.14L103.8 41.09Z" fill="black"/>
<path d="M93.34 25.77C93.059 25.7633 92.7887 25.6613 92.5733 25.4808C92.3579 25.3003 92.2103 25.0519 92.1545 24.7765C92.0987 24.5011 92.1381 24.2149 92.2663 23.9648C92.3945 23.7147 92.6038 23.5155 92.86 23.4L102.15 19.31C102.296 19.2428 102.453 19.205 102.614 19.1988C102.774 19.1926 102.934 19.2181 103.084 19.2739C103.235 19.3296 103.373 19.4145 103.491 19.5237C103.608 19.6328 103.703 19.7641 103.77 19.91V19.96C103.848 20.1 103.898 20.2543 103.916 20.4138C103.934 20.5733 103.919 20.7347 103.874 20.8885C103.828 21.0424 103.752 21.1855 103.65 21.3094C103.548 21.4333 103.422 21.5356 103.28 21.61L103.17 21.67L93.82 25.67C93.67 25.7404 93.5056 25.7746 93.34 25.77V25.77Z" fill="black"/>
<path d="M87.45 20C87.1264 20 86.8161 19.8715 86.5873 19.6427C86.3585 19.4139 86.23 19.1036 86.23 18.78C86.1894 18.6192 86.1894 18.4508 86.23 18.29L89.9 8.85999C89.9467 8.70618 90.0235 8.56322 90.1261 8.43944C90.2286 8.31566 90.3548 8.21355 90.4972 8.13908C90.6396 8.0646 90.7955 8.01925 90.9556 8.00567C91.1158 7.99209 91.2771 8.01056 91.43 8.05999H91.55C91.7046 8.10476 91.8489 8.17969 91.9744 8.28047C92.1 8.38125 92.2043 8.50588 92.2815 8.64717C92.3586 8.78847 92.4071 8.94364 92.424 9.10373C92.4409 9.26383 92.4259 9.42569 92.38 9.57999V9.65999C92.3853 9.67089 92.3881 9.68286 92.3881 9.69499C92.3881 9.70712 92.3853 9.71908 92.38 9.72999L88.58 19.18C88.4982 19.4159 88.346 19.621 88.1439 19.7676C87.9418 19.9142 87.6996 19.9954 87.45 20V20Z" fill="black"/>
<path d="M79.12 20.19C78.8795 20.1867 78.6451 20.113 78.4461 19.9779C78.247 19.8428 78.0919 19.6523 78 19.43L73.9 10.1C73.8344 9.94898 73.7991 9.78651 73.7962 9.62186C73.7933 9.4572 73.8229 9.2936 73.8833 9.14038C73.9436 8.98717 74.0336 8.84734 74.148 8.72888C74.2624 8.61043 74.399 8.51566 74.55 8.45C74.701 8.38434 74.8635 8.34907 75.0282 8.3462C75.1928 8.34333 75.3564 8.37292 75.5096 8.43327C75.6629 8.49363 75.8027 8.58358 75.9211 8.69798C76.0396 8.81237 76.1344 8.94898 76.2 9.1L80.27 18.43C80.3389 18.5749 80.3783 18.7321 80.3858 18.8923C80.3934 19.0526 80.369 19.2128 80.3141 19.3635C80.2592 19.5143 80.1749 19.6526 80.066 19.7704C79.9572 19.8883 79.8259 19.9833 79.68 20.05H79.62C79.465 20.1312 79.2946 20.1788 79.12 20.19Z" fill="black"/>
<path d="M73.36 26.13C73.206 26.1252 73.054 26.0947 72.91 26.04L63.43 22.31C63.249 22.2798 63.0769 22.2102 62.9258 22.106C62.7748 22.0018 62.6485 21.8657 62.556 21.7072C62.4635 21.5488 62.407 21.3719 62.3906 21.1892C62.3741 21.0064 62.3981 20.8223 62.4608 20.6498C62.5235 20.4774 62.6234 20.3209 62.7534 20.1914C62.8834 20.0619 63.0403 19.9626 63.213 19.9006C63.3857 19.8386 63.5699 19.8153 63.7526 19.8325C63.9352 19.8497 64.1119 19.9069 64.27 20H64.35L73.83 23.72C74.0011 23.7389 74.1665 23.7929 74.3157 23.8786C74.465 23.9643 74.5949 24.08 74.6974 24.2183C74.7999 24.3566 74.8727 24.5146 74.9113 24.6823C74.9499 24.8501 74.9534 25.024 74.9216 25.1932C74.8899 25.3623 74.8235 25.5231 74.7267 25.6655C74.6299 25.8078 74.5047 25.9286 74.3591 26.0203C74.2134 26.112 74.0504 26.1727 73.8802 26.1984C73.71 26.2242 73.5363 26.2145 73.37 26.17L73.36 26.13Z" fill="black"/>
<path d="M78.94 100.85L84.79 95C85.4473 94.3646 85.83 93.4973 85.8562 92.5835C85.8823 91.6697 85.5499 90.7819 84.93 90.11L83.11 88.29L80.82 86C84.4243 86.5084 88.0976 86.1663 91.5461 85.0012C94.9946 83.8361 98.1226 81.8802 100.68 79.29L109.88 70.11C110.1 69.9462 110.308 69.7657 110.5 69.57L115.23 64.85C115.985 64.1363 116.507 63.2109 116.726 62.1954C116.946 61.1799 116.853 60.1218 116.46 59.16C115.499 58.71 114.424 58.5647 113.378 58.7434C112.333 58.9222 111.367 59.4165 110.61 60.16L113.61 57.16C114.583 56.1853 115.13 54.8639 115.129 53.4864C115.128 52.109 114.58 50.7883 113.605 49.815C112.63 48.8416 111.309 48.2953 109.931 48.2963C108.554 48.2972 107.233 48.8453 106.26 49.82L107.49 48.6C108.115 47.9443 108.558 47.136 108.773 46.2559C108.989 45.3758 108.969 44.4545 108.717 43.5842C108.465 42.7138 107.989 41.9248 107.337 41.2959C106.685 40.6669 105.879 40.2201 105 40L114.8 30.22C115.281 29.7374 115.663 29.1647 115.923 28.5346C116.183 27.9046 116.316 27.2295 116.315 26.5479C116.314 25.8663 116.179 25.1916 115.917 24.5623C115.656 23.9329 115.273 23.3613 114.79 22.88C114.307 22.3987 113.735 22.0172 113.105 21.7572C112.475 21.4972 111.799 21.3639 111.118 21.3648C110.436 21.3657 109.762 21.5009 109.132 21.7626C108.503 22.0243 107.931 22.4074 107.45 22.89L82 48.32L81.84 48.13C80.62 46.64 79.26 44.93 77.84 43.01C75.1378 39.1844 72.1278 35.5858 68.84 32.25L66.44 30C65.468 29.0253 64.1486 28.4767 62.7721 28.4748C61.3955 28.4729 60.0747 29.018 59.1 29.99C58.1253 30.962 57.5767 32.2814 57.5748 33.6579C57.5729 35.0344 58.118 36.3553 59.09 37.33C61.8186 40.1677 63.79 43.646 64.8227 47.4449C65.8554 51.2438 65.9164 55.2413 65 59.07C64.929 59.3762 64.8789 59.6869 64.85 60C64.023 63.1925 63.9069 66.5277 64.51 69.77L62.57 67.83C61.8867 67.1748 60.9766 66.809 60.03 66.809C59.0833 66.809 58.1733 67.1748 57.49 67.83L51.64 73.67C50.9689 74.3429 50.592 75.2546 50.592 76.205C50.592 77.1554 50.9689 78.067 51.64 78.74L74 101C74.3351 101.324 74.7314 101.577 75.1658 101.746C75.6001 101.914 76.0637 101.994 76.5294 101.981C76.9951 101.968 77.4535 101.862 77.8778 101.67C78.302 101.477 78.6835 101.202 79 100.86L78.94 100.85Z" fill="#D40119"/>
<path d="M117.9 60.23C117.472 59.8048 116.966 59.4654 116.41 59.23C116.803 60.1918 116.896 61.2499 116.676 62.2654C116.457 63.2809 115.935 64.2063 115.18 64.92L110.46 69.64C110.262 69.8334 110.051 70.0138 109.83 70.18L100.68 79.36C98.1169 81.939 94.986 83.8827 91.5376 85.0356C88.0892 86.1886 84.4189 86.5188 80.82 86L83.11 88.28C86.7447 88.9515 90.488 88.7308 94.0186 87.637C97.5492 86.5431 100.762 84.6088 103.38 82L112.59 72.82C112.813 72.6591 113.02 72.4784 113.21 72.28L117.94 67.57C118.42 67.0908 118.8 66.5218 119.06 65.8955C119.319 65.2692 119.453 64.5979 119.453 63.92C119.453 63.242 119.319 62.5708 119.06 61.9445C118.8 61.3182 118.42 60.7492 117.94 60.27L117.9 60.23Z" fill="white"/>
<path d="M87.45 92.56L84.93 90.11C85.5499 90.7819 85.8823 91.6697 85.8562 92.5835C85.83 93.4973 85.4473 94.3646 84.79 95L78.94 100.84C78.3041 101.513 77.4282 101.907 76.5029 101.937C75.5777 101.967 74.6781 101.63 74 101L76.47 103.57C77.1472 104.237 78.0595 104.611 79.01 104.611C79.9605 104.611 80.8728 104.237 81.55 103.57L87.41 97.69C88.0891 97.025 88.4768 96.1178 88.4881 95.1674C88.4993 94.217 88.1332 93.3009 87.47 92.62L87.45 92.56Z" fill="white"/>
<path d="M87.7 74.61C87.539 74.6113 87.3792 74.5807 87.2301 74.52C87.0809 74.4593 86.9452 74.3696 86.8309 74.2562C86.7165 74.1428 86.6258 74.0078 86.5638 73.8592C86.5019 73.7105 86.47 73.551 86.47 73.39C86.471 73.0639 86.6003 72.7514 86.83 72.52C88.9846 70.3833 90.2399 67.5032 90.3385 64.4704C90.437 61.4376 89.3713 58.482 87.36 56.21C83.5623 52.2974 80.0311 48.1347 76.79 43.75C74.0883 39.9972 71.0994 36.4599 67.85 33.17L65.56 30.83C64.7842 30.136 63.7684 29.7719 62.7283 29.8148C61.6883 29.8578 60.706 30.3044 59.99 31.06C59.3159 31.7837 58.9411 32.736 58.9411 33.725C58.9411 34.714 59.3159 35.6663 59.99 36.39L60.07 36.49C62.9709 39.5397 65.0447 43.2798 66.0947 47.3557C67.1448 51.4317 67.1363 55.7083 66.07 59.78C65.9984 60.1049 65.8007 60.388 65.5203 60.5671C65.2399 60.7462 64.8999 60.8066 64.575 60.735C64.2501 60.6634 63.967 60.4656 63.7879 60.1853C63.6088 59.9049 63.5484 59.5649 63.62 59.24V59.18C64.5792 55.5055 64.582 51.6466 63.628 47.9707C62.674 44.2948 60.7951 40.9243 58.17 38.18L58.11 38.12C57.0421 36.8875 56.4833 35.2949 56.5469 33.6654C56.6105 32.0359 57.2918 30.4917 58.4525 29.3463C59.6132 28.2008 61.1664 27.54 62.7965 27.498C64.4267 27.456 66.0118 28.0359 67.23 29.12L69.52 31.39C72.8655 34.773 75.9353 38.4179 78.7 42.29C81.8658 46.592 85.3311 50.6655 89.07 54.48C91.526 57.2099 92.8437 60.7765 92.7525 64.4475C92.6614 68.1184 91.1684 71.6152 88.58 74.22C88.4682 74.3422 88.3323 74.44 88.1808 74.5071C88.0294 74.5742 87.8657 74.6092 87.7 74.61V74.61Z" fill="black"/>
<path d="M82 49.56C81.6754 49.5708 81.3597 49.4528 81.1218 49.2317C80.8839 49.0107 80.743 48.7045 80.73 48.38C80.7255 48.2047 80.7578 48.0304 80.825 47.8685C80.8922 47.7065 80.9927 47.5605 81.12 47.44L106.58 22C107.816 20.9947 109.382 20.4849 110.972 20.5696C112.563 20.6544 114.066 21.3276 115.188 22.4585C116.31 23.5894 116.972 25.0972 117.044 26.6887C117.117 28.2802 116.595 29.8418 115.58 31.07L105.79 40.85C105.555 41.0796 105.239 41.2082 104.91 41.2082C104.581 41.2082 104.265 41.0796 104.03 40.85C103.914 40.7356 103.822 40.5993 103.76 40.4491C103.697 40.2989 103.664 40.1378 103.664 39.975C103.664 39.8122 103.697 39.651 103.76 39.5008C103.822 39.3506 103.914 39.2144 104.03 39.1L113.83 29.32C114.224 28.9596 114.542 28.5229 114.763 28.0364C114.983 27.5498 115.103 27.0235 115.115 26.4894C115.126 25.9552 115.029 25.4242 114.83 24.9286C114.63 24.4329 114.332 23.9829 113.954 23.6058C113.575 23.2287 113.124 22.9323 112.628 22.7345C112.131 22.5367 111.6 22.4417 111.066 22.4551C110.532 22.4686 110.006 22.5903 109.52 22.8129C109.035 23.0354 108.599 23.3542 108.24 23.75L82.84 49.2C82.6166 49.4234 82.3158 49.5523 82 49.56V49.56Z" fill="black"/>
<path d="M87.19 89.88C85.8495 89.8802 84.5113 89.7664 83.19 89.54C82.8651 89.4843 82.5757 89.3018 82.3853 89.0327C82.195 88.7636 82.1193 88.4299 82.175 88.105C82.2307 87.7801 82.4132 87.4906 82.6823 87.3003C82.9514 87.1099 83.2851 87.0343 83.61 87.09C87.009 87.6711 90.4977 87.4296 93.7842 86.3857C97.0707 85.3418 100.059 83.5259 102.5 81.09L113.96 69.66C114.075 69.5444 114.211 69.4526 114.362 69.3898C114.512 69.327 114.674 69.2945 114.836 69.294C114.999 69.2935 115.161 69.3252 115.312 69.3871C115.462 69.4491 115.599 69.5401 115.715 69.655C115.831 69.7699 115.922 69.9064 115.985 70.0568C116.048 70.2072 116.081 70.3685 116.081 70.5314C116.081 70.6944 116.05 70.8559 115.988 71.0066C115.926 71.1574 115.835 71.2944 115.72 71.41L104.23 82.85C99.7023 87.3532 93.5759 89.8807 87.19 89.88V89.88Z" fill="black"/>
<path d="M64.47 70.69C64.18 70.6951 63.8975 70.5975 63.6724 70.4146C63.4473 70.2316 63.2942 69.9749 63.24 69.69C62.658 66.1921 62.8423 62.6097 63.78 59.19C63.8682 58.8773 64.0738 58.6108 64.3539 58.4461C64.6339 58.2814 64.9668 58.2312 65.2829 58.306C65.5991 58.3809 65.8741 58.575 66.0506 58.8477C66.227 59.1205 66.2913 59.4509 66.23 59.77V59.85C65.3886 62.9212 65.2214 66.1381 65.74 69.28C65.7687 69.439 65.7655 69.6021 65.7306 69.7599C65.6957 69.9177 65.6299 70.0669 65.5369 70.199C65.4438 70.3311 65.3255 70.4435 65.1887 70.5295C65.0519 70.6155 64.8994 70.6734 64.74 70.7H64.45L64.47 70.69Z" fill="black"/>
<path d="M79.06 105.8C78.4259 105.803 77.7974 105.681 77.2105 105.441C76.6237 105.201 76.09 104.847 75.64 104.4L50.76 79.58C49.8658 78.6662 49.3651 77.4385 49.3651 76.16C49.3651 74.8815 49.8658 73.6538 50.76 72.74L56.62 66.89C57.5254 65.9875 58.7516 65.4807 60.03 65.4807C61.3084 65.4807 62.5346 65.9875 63.44 66.89L88.33 91.7C89.2236 92.6121 89.724 93.8381 89.724 95.115C89.724 96.3919 89.2236 97.6179 88.33 98.53L82.48 104.37C81.5719 105.277 80.3435 105.791 79.06 105.8V105.8ZM52.51 77.89L77.39 102.65C77.8336 103.088 78.4317 103.333 79.055 103.333C79.6783 103.333 80.2765 103.088 80.72 102.65L86.58 96.81C86.7992 96.5917 86.9732 96.3322 87.0918 96.0465C87.2105 95.7607 87.2716 95.4544 87.2716 95.145C87.2716 94.8356 87.2105 94.5293 87.0918 94.2435C86.9732 93.9578 86.7992 93.6983 86.58 93.48L61.72 68.66C61.2765 68.2221 60.6783 67.9766 60.055 67.9766C59.4317 67.9766 58.8336 68.2221 58.39 68.66L52.54 74.5C52.3208 74.7183 52.1469 74.9778 52.0282 75.2635C51.9095 75.5493 51.8484 75.8556 51.8484 76.165C51.8484 76.4744 51.9095 76.7807 52.0282 77.0665C52.1469 77.3522 52.3208 77.6117 52.54 77.83L52.51 77.89Z" fill="black"/>
<path d="M80.8 98.37C80.6333 98.3753 80.4673 98.346 80.3124 98.2841C80.1575 98.2221 80.0171 98.1288 79.9 98.01L76.8 94.91C76.5984 94.668 76.4948 94.3592 76.5095 94.0446C76.5242 93.7299 76.6563 93.4322 76.8797 93.2101C77.103 92.988 77.4015 92.8576 77.7162 92.8446C78.0309 92.8317 78.3391 92.937 78.58 93.14L81.68 96.22C81.8744 96.3878 82.0109 96.6127 82.0701 96.8627C82.1292 97.1126 82.1079 97.3749 82.0093 97.612C81.9107 97.8492 81.7397 98.0492 81.5208 98.1835C81.3018 98.3178 81.0461 98.3795 80.79 98.36L80.8 98.37Z" fill="black"/>
<path d="M116.39 53.95L116.21 53.93L116.22 53.88L116.39 53.9V53.95Z" fill="black"/>
<path d="M109.5 75C108.223 75.0051 106.974 74.6287 105.912 73.9191C104.851 73.2095 104.025 72.199 103.542 71.0171C103.058 69.8352 102.939 68.5359 103.198 67.2857C103.458 66.0355 104.086 64.8913 105 64L109.72 59.29C110.923 58.0846 112.555 57.4064 114.258 57.4045C115.961 57.4026 117.595 58.0773 118.8 59.28C120.005 60.4828 120.684 62.1151 120.686 63.8179C120.687 65.5208 120.013 67.1546 118.81 68.36L114 73.07C113.416 73.6744 112.717 74.1564 111.944 74.4877C111.172 74.8191 110.341 74.9933 109.5 75V75ZM114.23 60C113.712 59.9962 113.198 60.096 112.719 60.2934C112.24 60.4909 111.805 60.7822 111.44 61.15L106.71 65.86C106.342 66.2244 106.05 66.6577 105.85 67.1351C105.649 67.6125 105.545 68.1246 105.543 68.6423C105.541 69.16 105.64 69.6731 105.836 70.1523C106.032 70.6314 106.321 71.0673 106.685 71.435C107.049 71.8027 107.483 72.095 107.96 72.2953C108.437 72.4955 108.95 72.5998 109.467 72.6021C109.985 72.6045 110.498 72.5048 110.977 72.3088C111.456 72.1129 111.892 71.8244 112.26 71.46L116.98 66.76C117.347 66.3949 117.638 65.9609 117.836 65.4829C118.035 65.005 118.137 64.4926 118.137 63.975C118.137 63.4575 118.035 62.945 117.836 62.4671C117.638 61.9892 117.347 61.5552 116.98 61.19C116.235 60.451 115.229 60.0344 114.18 60.03L114.23 60Z" fill="black"/>
<path d="M105.16 64.71C103.88 64.7232 102.625 64.3526 101.557 63.6461C100.489 62.9395 99.6573 61.9294 99.1688 60.7458C98.6804 59.5623 98.5575 58.2595 98.8162 57.0055C99.0748 55.7515 99.7031 54.6037 100.62 53.71L105.33 49.01C105.929 48.4145 106.639 47.9427 107.42 47.6217C108.201 47.3006 109.038 47.1366 109.883 47.1389C110.727 47.1412 111.563 47.3098 112.342 47.6352C113.122 47.9605 113.829 48.4362 114.425 49.035C115.021 49.6338 115.492 50.3441 115.813 51.1253C116.134 51.9064 116.298 52.7431 116.296 53.5877C116.294 54.4322 116.125 55.2681 115.8 56.0474C115.474 56.8268 114.999 57.5345 114.4 58.13L109.67 62.83C109.08 63.4257 108.377 63.8985 107.603 64.2212C106.829 64.5438 105.999 64.71 105.16 64.71V64.71ZM109.89 49.71C109.372 49.7015 108.858 49.7981 108.378 49.994C107.899 50.19 107.464 50.4812 107.1 50.85L102.37 55.57C101.995 55.9272 101.694 56.3548 101.484 56.8282C101.275 57.3017 101.16 57.8119 101.148 58.3296C101.135 58.8472 101.225 59.3623 101.411 59.8454C101.598 60.3285 101.878 60.7701 102.235 61.145C102.592 61.5199 103.02 61.8208 103.493 62.0305C103.967 62.2402 104.477 62.3546 104.995 62.3671C105.512 62.3797 106.027 62.2901 106.51 62.1036C106.993 61.9171 107.435 61.6372 107.81 61.28L107.96 61.13L112.67 56.42C113.408 55.6812 113.823 54.6795 113.823 53.635C113.823 52.5906 113.408 51.5888 112.67 50.85C111.922 50.1184 110.917 49.7091 109.87 49.71H109.89Z" fill="black"/>
<path d="M99.08 56.15C97.8113 56.153 96.5702 55.7793 95.5139 55.0765C94.4577 54.3736 93.6338 53.373 93.1466 52.2016C92.6594 51.0301 92.5307 49.7404 92.777 48.4958C93.0233 47.2512 93.6334 46.1077 94.53 45.21L99.25 40.49C100.41 39.2422 102.019 38.5064 103.722 38.4445C105.424 38.3826 107.082 38.9997 108.33 40.16C109.578 41.3203 110.314 42.9288 110.376 44.6317C110.437 46.3345 109.82 47.9922 108.66 49.24L108.34 49.56L103.62 54.28C102.408 55.4702 100.779 56.141 99.08 56.15V56.15ZM103.8 41.09C102.751 41.0944 101.745 41.511 101 42.25L96.28 47C95.5646 47.7463 95.1703 48.7433 95.1817 49.777C95.193 50.8107 95.6092 51.7987 96.3408 52.5291C97.0725 53.2594 98.0613 53.6738 99.095 53.6833C100.129 53.6929 101.125 53.2968 101.87 52.58L106.58 47.86C107.124 47.3066 107.494 46.6051 107.642 45.8431C107.79 45.081 107.71 44.2923 107.412 43.5753C107.115 42.8584 106.612 42.2451 105.968 41.8119C105.324 41.3788 104.566 41.1451 103.79 41.14L103.8 41.09Z" fill="black"/>
<path d="M93.34 25.77C93.059 25.7633 92.7887 25.6613 92.5733 25.4808C92.3579 25.3003 92.2103 25.0519 92.1545 24.7765C92.0987 24.5011 92.1381 24.2149 92.2663 23.9648C92.3945 23.7147 92.6038 23.5155 92.86 23.4L102.15 19.31C102.296 19.2428 102.453 19.205 102.614 19.1988C102.774 19.1926 102.934 19.2181 103.084 19.2739C103.235 19.3296 103.373 19.4145 103.491 19.5237C103.608 19.6328 103.703 19.7641 103.77 19.91V19.96C103.848 20.1 103.898 20.2543 103.916 20.4138C103.934 20.5733 103.919 20.7347 103.874 20.8885C103.828 21.0424 103.752 21.1855 103.65 21.3094C103.548 21.4333 103.422 21.5356 103.28 21.61L103.17 21.67L93.82 25.67C93.67 25.7404 93.5056 25.7746 93.34 25.77V25.77Z" fill="black"/>
<path d="M87.45 20C87.1264 20 86.8161 19.8715 86.5873 19.6427C86.3585 19.4139 86.23 19.1036 86.23 18.78C86.1894 18.6192 86.1894 18.4508 86.23 18.29L89.9 8.85999C89.9467 8.70618 90.0235 8.56322 90.1261 8.43944C90.2286 8.31566 90.3548 8.21355 90.4972 8.13908C90.6396 8.0646 90.7955 8.01925 90.9556 8.00567C91.1158 7.99209 91.2771 8.01056 91.43 8.05999H91.55C91.7046 8.10476 91.8489 8.17969 91.9744 8.28047C92.1 8.38125 92.2043 8.50588 92.2815 8.64717C92.3586 8.78847 92.4071 8.94364 92.424 9.10373C92.4409 9.26383 92.4259 9.42569 92.38 9.57999V9.65999C92.3853 9.67089 92.3881 9.68286 92.3881 9.69499C92.3881 9.70712 92.3853 9.71908 92.38 9.72999L88.58 19.18C88.4982 19.4159 88.346 19.621 88.1439 19.7676C87.9418 19.9142 87.6996 19.9954 87.45 20V20Z" fill="black"/>
<path d="M79.12 20.19C78.8795 20.1867 78.6451 20.113 78.4461 19.9779C78.247 19.8428 78.0919 19.6523 78 19.43L73.9 10.1C73.8344 9.94898 73.7991 9.78651 73.7962 9.62186C73.7933 9.4572 73.8229 9.2936 73.8833 9.14038C73.9436 8.98717 74.0336 8.84734 74.148 8.72888C74.2624 8.61043 74.399 8.51566 74.55 8.45C74.701 8.38434 74.8635 8.34907 75.0282 8.3462C75.1928 8.34333 75.3564 8.37292 75.5096 8.43327C75.6629 8.49363 75.8027 8.58358 75.9211 8.69798C76.0396 8.81237 76.1344 8.94898 76.2 9.1L80.27 18.43C80.3389 18.5749 80.3783 18.7321 80.3858 18.8923C80.3934 19.0526 80.369 19.2128 80.3141 19.3635C80.2592 19.5143 80.1749 19.6526 80.066 19.7704C79.9572 19.8883 79.8259 19.9833 79.68 20.05H79.62C79.465 20.1312 79.2946 20.1788 79.12 20.19Z" fill="black"/>
<path d="M73.36 26.13C73.206 26.1252 73.054 26.0947 72.91 26.04L63.43 22.31C63.249 22.2798 63.0769 22.2102 62.9258 22.106C62.7748 22.0018 62.6485 21.8657 62.556 21.7072C62.4635 21.5488 62.407 21.3719 62.3906 21.1892C62.3741 21.0064 62.3981 20.8223 62.4608 20.6498C62.5235 20.4774 62.6234 20.3209 62.7534 20.1914C62.8834 20.0619 63.0403 19.9626 63.213 19.9006C63.3857 19.8386 63.5699 19.8153 63.7526 19.8325C63.9352 19.8497 64.1119 19.9069 64.27 20H64.35L73.83 23.72C74.0011 23.7389 74.1665 23.7929 74.3157 23.8786C74.465 23.9643 74.5949 24.08 74.6974 24.2183C74.7999 24.3566 74.8727 24.5146 74.9113 24.6823C74.9499 24.8501 74.9534 25.024 74.9216 25.1932C74.8899 25.3623 74.8235 25.5231 74.7267 25.6655C74.6299 25.8078 74.5047 25.9286 74.3591 26.0203C74.2134 26.112 74.0504 26.1727 73.8802 26.1984C73.71 26.2242 73.5363 26.2145 73.37 26.17L73.36 26.13Z" fill="black"/>
<path d="M59.06 135.38C59.0826 136.164 58.8549 136.934 58.41 137.58C57.9566 138.218 57.3279 138.712 56.6 139C55.7558 139.342 54.8507 139.509 53.94 139.49C53.606 139.49 53.2723 139.473 52.94 139.44C52.394 139.375 51.8529 139.275 51.32 139.14C50.5962 138.965 49.89 138.724 49.21 138.42V135.1C49.8493 135.5 50.5179 135.851 51.21 136.15C51.881 136.432 52.6022 136.575 53.33 136.57C53.8072 136.638 54.2919 136.516 54.68 136.23C54.8605 136.059 54.971 135.828 54.99 135.58C54.9891 135.392 54.9399 135.208 54.847 135.045C54.7542 134.883 54.6209 134.746 54.46 134.65C53.9826 134.333 53.469 134.075 52.93 133.88C52.2351 133.606 51.5658 133.272 50.93 132.88C50.3806 132.522 49.9136 132.052 49.56 131.5C49.1851 130.902 48.9971 130.206 49.02 129.5C49.0075 128.796 49.1948 128.102 49.56 127.5C49.9624 126.884 50.531 126.396 51.2 126.09C52.0505 125.719 52.9726 125.542 53.9 125.57C54.6028 125.563 55.304 125.637 55.99 125.79C56.5341 125.903 57.0665 126.067 57.58 126.28C57.8786 126.398 58.1664 126.542 58.44 126.71V129.88C57.8567 129.471 57.2375 129.117 56.59 128.82C55.9026 128.507 55.1554 128.346 54.4 128.35C54.011 128.319 53.6231 128.421 53.3 128.64C53.1917 128.728 53.1048 128.839 53.0459 128.966C52.987 129.092 52.9576 129.23 52.96 129.37C52.9614 129.503 52.9928 129.634 53.0516 129.754C53.1104 129.873 53.1953 129.978 53.3 130.06C53.6799 130.34 54.0889 130.578 54.52 130.77C55.3781 131.161 56.2128 131.602 57.02 132.09C57.5988 132.432 58.0995 132.892 58.49 133.44C58.8827 134.009 59.0825 134.689 59.06 135.38V135.38Z" fill="#D30119"/>
<path d="M71.5 135.2H64.5C64.6379 135.8 64.9944 136.328 65.5 136.68C66.0292 137.063 66.667 137.266 67.32 137.26C68.6833 137.212 70.0203 136.871 71.24 136.26V138.44C70.6393 138.738 70.0136 138.982 69.37 139.17C68.4557 139.404 67.5136 139.512 66.57 139.49C65.4898 139.525 64.4178 139.291 63.45 138.81C62.6443 138.407 61.9736 137.778 61.52 137C61.0831 136.186 60.8627 135.274 60.88 134.35C60.8625 133.436 61.083 132.533 61.52 131.73C61.9618 130.94 62.6355 130.305 63.45 129.91C64.4227 129.445 65.4923 129.219 66.57 129.25C67.3788 129.248 68.178 129.426 68.91 129.77C69.6876 130.14 70.3357 130.736 70.77 131.48C71.2896 132.414 71.5422 133.472 71.5 134.54V135.2ZM68.2 133.46C68.2287 132.909 68.0584 132.366 67.72 131.93C67.5525 131.737 67.3427 131.585 67.1068 131.486C66.8708 131.387 66.6153 131.344 66.36 131.36C66.0954 131.348 65.8315 131.394 65.5863 131.494C65.3411 131.594 65.1206 131.746 64.94 131.94C64.5686 132.357 64.3748 132.902 64.4 133.46H68.2Z" fill="#D30119"/>
<path d="M82 129.91L80.7 133.44C80.2794 132.986 79.6983 132.713 79.08 132.68C78.8426 132.674 78.6064 132.715 78.385 132.801C78.1636 132.887 77.9614 133.016 77.79 133.18C77.323 133.718 76.9814 134.354 76.79 135.04V139.32H73.25V129.38H76.76V131.78C77.0176 131.11 77.4167 130.502 77.93 130C78.1875 129.73 78.4981 129.516 78.8423 129.371C79.1864 129.227 79.5568 129.155 79.93 129.16C80.2715 129.159 80.6104 129.22 80.93 129.34C81.3016 129.5 81.6595 129.691 82 129.91Z" fill="#D30119"/>
<path d="M93.65 129.38L89.13 139.32H86.53L82.1 129.38H85.88L87.94 134.58L90.23 129.38H93.65Z" fill="#D30119"/>
<path d="M98.57 139.32H95V129.38H98.53L98.57 139.32ZM98.29 127.08C98.2804 127.458 98.1223 127.817 97.85 128.08C97.5834 128.345 97.2259 128.499 96.85 128.51C96.5919 128.509 96.3384 128.441 96.1142 128.313C95.8899 128.185 95.7025 128.002 95.57 127.78C95.4417 127.551 95.3762 127.292 95.38 127.03C95.3824 126.843 95.4216 126.659 95.4954 126.487C95.5692 126.316 95.6761 126.16 95.81 126.03C95.9372 125.891 96.0918 125.781 96.2639 125.705C96.436 125.629 96.622 125.59 96.81 125.59C96.9976 125.593 97.1826 125.634 97.3543 125.709C97.5261 125.785 97.681 125.894 97.81 126.03C97.9586 126.162 98.078 126.324 98.1607 126.504C98.2433 126.685 98.2874 126.881 98.29 127.08V127.08Z" fill="#D30119"/>
<path d="M109.55 138.86L108.62 139.17C107.829 139.389 107.011 139.496 106.19 139.49C105.24 139.521 104.296 139.332 103.43 138.94C102.746 138.625 102.149 138.148 101.69 137.55C101.302 137.043 101.017 136.466 100.85 135.85C100.528 134.852 100.528 133.778 100.85 132.78C101.024 132.173 101.308 131.603 101.69 131.1C102.142 130.513 102.733 130.049 103.41 129.75C104.282 129.357 105.233 129.168 106.19 129.2C106.791 129.186 107.391 129.24 107.98 129.36C108.46 129.463 108.932 129.603 109.39 129.78V132.54C108.527 132.231 107.625 132.046 106.71 131.99C106.104 131.983 105.515 132.184 105.04 132.56C104.788 132.775 104.591 133.047 104.464 133.352C104.337 133.658 104.284 133.99 104.31 134.32C104.295 134.789 104.42 135.252 104.67 135.65C104.898 135.996 105.216 136.272 105.59 136.45C105.942 136.61 106.323 136.695 106.71 136.7C107.115 136.695 107.518 136.641 107.91 136.54C108.36 136.44 108.91 136.29 109.55 136.09V138.86Z" fill="#D30119"/>
<path d="M121.49 135.2H114.49C114.624 135.802 114.982 136.331 115.49 136.68C116.016 137.061 116.65 137.264 117.3 137.26C118.667 137.213 120.007 136.872 121.23 136.26V138.44C120.629 138.736 120.003 138.98 119.36 139.17C118.446 139.404 117.504 139.511 116.56 139.49C115.477 139.525 114.401 139.291 113.43 138.81C112.62 138.394 111.952 137.746 111.51 136.95C111.073 136.136 110.853 135.224 110.87 134.3C110.852 133.386 111.073 132.483 111.51 131.68C111.948 130.891 112.618 130.255 113.43 129.86C114.406 129.395 115.479 129.169 116.56 129.2C117.369 129.198 118.168 129.376 118.9 129.72C119.675 130.091 120.319 130.687 120.75 131.43C121.274 132.362 121.527 133.422 121.48 134.49L121.49 135.2ZM118.19 133.46C118.217 132.911 118.051 132.369 117.72 131.93C117.551 131.736 117.339 131.584 117.101 131.486C116.864 131.387 116.607 131.344 116.35 131.36C116.086 131.35 115.822 131.397 115.577 131.497C115.333 131.597 115.112 131.748 114.93 131.94C114.559 132.357 114.365 132.902 114.39 133.46H118.19Z" fill="#D30119"/>
<path d="M41.07 152.68V154.12H37.68V162.23H35.84V154.12H32.44V152.68H41.07Z" fill="#212121"/>
<path d="M44.79 155.72C45.0183 155.722 45.2434 155.773 45.45 155.87C45.7241 156.007 45.9795 156.178 46.21 156.38L45.6 157.85C45.2753 157.551 44.867 157.36 44.43 157.3C44.1484 157.309 43.8778 157.411 43.66 157.59C43.3995 157.796 43.1906 158.059 43.05 158.36C42.8973 158.671 42.8186 159.013 42.82 159.36V162.27H41.14V155.89H42.82V157.51C43.0396 157.012 43.3518 156.561 43.74 156.18C43.876 156.038 44.0388 155.924 44.219 155.845C44.3992 155.766 44.5933 155.724 44.79 155.72V155.72Z" fill="#212121"/>
<path d="M49.29 155.72C49.9589 155.676 50.6228 155.863 51.17 156.25C51.3851 156.423 51.5561 156.645 51.6691 156.897C51.782 157.149 51.8338 157.424 51.82 157.7V160.83C51.82 161.07 51.92 161.19 52.11 161.19C52.2323 161.181 52.3514 161.147 52.46 161.09C52.5916 161.02 52.7156 160.936 52.83 160.84V161.84C52.3524 162.163 51.7958 162.35 51.22 162.38C50.9774 162.394 50.7356 162.342 50.52 162.23C50.3445 162.102 50.2232 161.913 50.18 161.7C49.626 162.127 48.9495 162.366 48.25 162.38C47.8083 162.389 47.3808 162.224 47.06 161.92C46.9028 161.779 46.7776 161.607 46.6931 161.413C46.6085 161.22 46.5665 161.011 46.57 160.8C46.5568 160.561 46.5935 160.322 46.6779 160.098C46.7623 159.875 46.8924 159.671 47.06 159.5C47.5612 159.092 48.1498 158.804 48.78 158.66L50.14 158.27V157.97C50.14 157.35 49.77 157.04 49.01 157.04C48.6094 157.045 48.2143 157.133 47.85 157.3C47.4675 157.494 47.1276 157.763 46.85 158.09V156.58C47.5406 156.022 48.4021 155.718 49.29 155.72V155.72ZM48.29 160.52C48.2872 160.623 48.3053 160.726 48.3431 160.822C48.3808 160.919 48.4376 161.006 48.51 161.08C48.6619 161.221 48.863 161.296 49.07 161.29C49.4858 161.265 49.8775 161.087 50.17 160.79V159.11C49.7928 159.233 49.4252 159.383 49.07 159.56C48.8486 159.666 48.6486 159.812 48.48 159.99C48.3437 160.133 48.2653 160.322 48.26 160.52H48.29Z" fill="#212121"/>
<path d="M54.74 155.85L56.27 159.54L57.77 155.85H59.56L56.68 162.35H55.86L52.94 155.85H54.74Z" fill="#212121"/>
<path d="M63.29 155.72C63.7047 155.7 64.1188 155.77 64.5038 155.925C64.8888 156.081 65.2355 156.318 65.52 156.62C66.0955 157.322 66.3879 158.214 66.34 159.12V159.37H61.82C61.8585 159.875 62.0872 160.347 62.46 160.69C62.8777 161.017 63.4004 161.181 63.93 161.15C64.3262 161.151 64.7193 161.08 65.09 160.94C65.499 160.781 65.8856 160.569 66.24 160.31V161.56C65.4399 162.105 64.4875 162.381 63.52 162.35C63.0686 162.369 62.6179 162.298 62.194 162.142C61.77 161.986 61.3812 161.747 61.05 161.44C60.7281 161.124 60.4769 160.743 60.3131 160.322C60.1494 159.901 60.0767 159.451 60.1 159C60.0815 158.566 60.1498 158.133 60.3009 157.726C60.452 157.319 60.6829 156.947 60.98 156.63C61.2778 156.322 61.638 156.082 62.0365 155.925C62.4349 155.768 62.8623 155.698 63.29 155.72V155.72ZM64.76 158.35C64.7358 157.95 64.5852 157.569 64.33 157.26C64.2032 157.124 64.0475 157.019 63.8744 156.951C63.7013 156.884 63.5153 156.856 63.33 156.87C62.9599 156.861 62.6011 156.998 62.33 157.25C62.0516 157.553 61.8826 157.94 61.85 158.35H64.76Z" fill="#212121"/>
<path d="M69.39 152.68V162.23H67.71V152.68H69.39Z" fill="#212121"/>
<path d="M78.72 155.72C79.143 155.703 79.5611 155.815 79.9185 156.042C80.2759 156.269 80.5555 156.6 80.72 156.99C81.0121 156.594 81.3748 156.255 81.79 155.99C82.1481 155.782 82.5559 155.675 82.97 155.68C83.2745 155.667 83.5782 155.72 83.861 155.834C84.1437 155.947 84.399 156.12 84.61 156.34C85.037 156.824 85.2593 157.455 85.23 158.1V162.19H83.56V158.38C83.571 158.024 83.4695 157.674 83.27 157.38C83.1738 157.255 83.0493 157.154 82.9068 157.087C82.7643 157.019 82.6078 156.986 82.45 156.99C82.1448 157.029 81.8536 157.141 81.6012 157.317C81.3487 157.493 81.1425 157.727 81 158V162.25H79.29V158.4C79.3062 158.042 79.2004 157.69 78.99 157.4C78.8938 157.278 78.7705 157.18 78.6299 157.114C78.4893 157.048 78.3352 157.016 78.18 157.02C77.9111 157.02 77.6489 157.104 77.43 157.26C77.1504 157.472 76.9042 157.725 76.7 158.01V162.26H75V155.88H76.7V156.77C76.9632 156.462 77.2778 156.201 77.63 156C77.9656 155.82 78.3395 155.724 78.72 155.72V155.72Z" fill="#212121"/>
<path d="M89.16 155.72C89.8289 155.676 90.4928 155.863 91.04 156.25C91.2551 156.423 91.4261 156.645 91.5391 156.897C91.652 157.149 91.7038 157.424 91.69 157.7V160.83C91.69 161.07 91.79 161.19 91.99 161.19C92.109 161.181 92.2248 161.147 92.33 161.09C92.4631 161.022 92.5873 160.938 92.7 160.84V161.84C92.2238 162.166 91.6664 162.353 91.09 162.38C90.8506 162.394 90.6119 162.342 90.4 162.23C90.31 162.17 90.2334 162.092 90.1749 162C90.1164 161.909 90.0773 161.807 90.06 161.7C89.5026 162.128 88.8227 162.366 88.12 162.38C87.9027 162.385 87.6866 162.347 87.4841 162.268C87.2816 162.189 87.0967 162.071 86.94 161.92C86.7814 161.78 86.6548 161.607 86.5685 161.414C86.4823 161.221 86.4384 161.012 86.44 160.8C86.4292 160.561 86.4671 160.323 86.5513 160.1C86.6355 159.876 86.7644 159.672 86.93 159.5C87.4351 159.092 88.0268 158.805 88.66 158.66L90.02 158.27V157.97C90.02 157.35 89.64 157.04 88.88 157.04C88.4825 157.044 88.0904 157.132 87.73 157.3C87.3481 157.495 87.0083 157.764 86.73 158.09V156.58C87.4195 156.027 88.2761 155.724 89.16 155.72V155.72ZM88.16 160.52C88.1548 160.624 88.1717 160.727 88.2096 160.824C88.2476 160.92 88.3056 161.008 88.38 161.08C88.5283 161.22 88.7261 161.296 88.93 161.29C89.3493 161.267 89.745 161.089 90.04 160.79V159.11C89.6597 159.233 89.2887 159.384 88.93 159.56C88.711 159.665 88.5141 159.811 88.35 159.99C88.213 160.132 88.1375 160.323 88.14 160.52H88.16Z" fill="#212121"/>
<path d="M97.94 156V152.69H99.61V162.24H96.61C96.1637 162.263 95.7174 162.196 95.2969 162.045C94.8764 161.894 94.49 161.661 94.16 161.36C93.6774 160.824 93.3714 160.153 93.2838 159.437C93.1961 158.722 93.331 157.996 93.67 157.36C93.9441 156.872 94.3494 156.47 94.84 156.2C95.3343 155.921 95.8927 155.777 96.46 155.78C96.9624 155.766 97.4634 155.84 97.94 156V156ZM97.06 160.95H97.94V157.26C97.6071 157.084 97.2365 156.991 96.86 156.99C96.6119 156.979 96.3642 157.02 96.1333 157.112C95.9023 157.203 95.6933 157.342 95.52 157.52C95.3475 157.705 95.2136 157.922 95.126 158.159C95.0385 158.396 94.999 158.648 95.01 158.9C94.9715 159.178 94.9981 159.461 95.0877 159.726C95.1773 159.992 95.3274 160.234 95.5262 160.431C95.725 160.629 95.967 160.778 96.2332 160.866C96.4994 160.955 96.7824 160.98 97.06 160.94V160.95Z" fill="#212121"/>
<path d="M104.15 155.72C104.565 155.699 104.979 155.769 105.364 155.924C105.749 156.08 106.096 156.317 106.38 156.62C106.96 157.32 107.253 158.213 107.2 159.12V159.37H102.68C102.718 159.875 102.947 160.347 103.32 160.69C103.741 161.019 104.267 161.182 104.8 161.15C105.196 161.15 105.589 161.079 105.96 160.94C106.368 160.779 106.754 160.567 107.11 160.31V161.56C106.309 162.103 105.357 162.379 104.39 162.35C103.939 162.369 103.488 162.298 103.064 162.142C102.64 161.986 102.251 161.747 101.92 161.44C101.59 161.132 101.33 160.756 101.158 160.338C100.985 159.921 100.904 159.471 100.92 159.02C100.903 158.586 100.974 158.152 101.126 157.745C101.279 157.338 101.512 156.966 101.81 156.65C102.109 156.335 102.474 156.088 102.878 155.928C103.282 155.767 103.716 155.696 104.15 155.72ZM105.62 158.35C105.604 157.95 105.456 157.567 105.2 157.26C105.072 157.125 104.916 157.021 104.744 156.953C104.571 156.886 104.385 156.857 104.2 156.87C103.83 156.86 103.47 156.997 103.2 157.25C102.919 157.552 102.746 157.939 102.71 158.35H105.62Z" fill="#212121"/>
<path d="M115.27 155.72C115.685 155.7 116.099 155.77 116.484 155.925C116.869 156.081 117.216 156.318 117.5 156.62C118.075 157.322 118.368 158.214 118.32 159.12V159.37H113.8C113.838 159.875 114.067 160.347 114.44 160.69C114.858 161.017 115.38 161.181 115.91 161.15C116.306 161.151 116.699 161.08 117.07 160.94C117.479 160.781 117.866 160.569 118.22 160.31V161.56C117.42 162.105 116.467 162.381 115.5 162.35C115.049 162.369 114.598 162.298 114.174 162.142C113.75 161.986 113.361 161.747 113.03 161.44C112.702 161.13 112.443 160.755 112.27 160.337C112.098 159.92 112.016 159.471 112.03 159.02C112.011 158.586 112.08 158.153 112.231 157.746C112.382 157.339 112.613 156.967 112.91 156.65C113.212 156.332 113.579 156.084 113.987 155.923C114.395 155.763 114.833 155.693 115.27 155.72V155.72ZM116.74 158.35C116.716 157.95 116.565 157.569 116.31 157.26C116.183 157.124 116.027 157.019 115.854 156.951C115.681 156.884 115.495 156.856 115.31 156.87C114.94 156.861 114.581 156.998 114.31 157.25C114.032 157.553 113.863 157.94 113.83 158.35H116.74Z" fill="#212121"/>
<path d="M121.93 155.72C122.599 155.676 123.263 155.863 123.81 156.25C124.026 156.422 124.198 156.644 124.311 156.896C124.424 157.148 124.475 157.424 124.46 157.7V160.83C124.46 161.07 124.56 161.19 124.76 161.19C124.879 161.181 124.995 161.147 125.1 161.09C125.233 161.022 125.357 160.938 125.47 160.84V161.84C124.994 162.166 124.436 162.353 123.86 162.38C123.621 162.394 123.382 162.342 123.17 162.23C122.991 162.105 122.869 161.914 122.83 161.7C122.273 162.128 121.593 162.366 120.89 162.38C120.673 162.385 120.457 162.347 120.254 162.268C120.052 162.189 119.867 162.071 119.71 161.92C119.551 161.78 119.425 161.607 119.339 161.414C119.252 161.221 119.208 161.012 119.21 160.8C119.198 160.56 119.236 160.321 119.323 160.097C119.409 159.873 119.541 159.67 119.71 159.5C120.21 159.09 120.799 158.802 121.43 158.66L122.79 158.27V157.97C122.79 157.35 122.41 157.04 121.65 157.04C121.253 157.045 120.861 157.133 120.5 157.3C120.12 157.498 119.78 157.766 119.5 158.09V156.58C120.19 156.027 121.046 155.724 121.93 155.72V155.72ZM120.93 160.52C120.925 160.624 120.942 160.727 120.98 160.824C121.018 160.92 121.076 161.008 121.15 161.08C121.298 161.22 121.496 161.296 121.7 161.29C122.119 161.267 122.515 161.089 122.81 160.79V159.11C122.43 159.233 122.059 159.384 121.7 159.56C121.481 159.665 121.284 159.811 121.12 159.99C120.983 160.132 120.908 160.323 120.91 160.52H120.93Z" fill="#212121"/>
<path d="M128.47 155.72C128.807 155.718 129.143 155.758 129.47 155.84C129.816 155.931 130.151 156.058 130.47 156.22V157.57C130.158 157.363 129.822 157.195 129.47 157.07C129.149 156.953 128.811 156.889 128.47 156.88C128.27 156.869 128.072 156.917 127.9 157.02C127.836 157.063 127.784 157.121 127.749 157.189C127.714 157.257 127.697 157.333 127.7 157.41C127.706 157.468 127.725 157.523 127.754 157.573C127.783 157.623 127.823 157.666 127.87 157.7C128.169 157.899 128.483 158.073 128.81 158.22C129.373 158.465 129.89 158.803 130.34 159.22C130.485 159.368 130.598 159.543 130.674 159.735C130.75 159.928 130.786 160.133 130.78 160.34C130.794 160.615 130.744 160.889 130.632 161.141C130.521 161.393 130.353 161.615 130.14 161.79C129.642 162.169 129.025 162.357 128.4 162.32C127.972 162.323 127.545 162.273 127.13 162.17C126.783 162.093 126.447 161.972 126.13 161.81V160.41C126.753 160.805 127.464 161.039 128.2 161.09C128.442 161.1 128.683 161.049 128.9 160.94C128.977 160.902 129.041 160.843 129.087 160.771C129.133 160.699 129.158 160.616 129.16 160.53C129.161 160.433 129.129 160.338 129.07 160.26C128.987 160.162 128.889 160.078 128.78 160.01C128.647 159.917 128.247 159.707 127.58 159.38C127.149 159.195 126.761 158.922 126.44 158.58C126.204 158.3 126.073 157.946 126.07 157.58C126.061 157.317 126.118 157.056 126.235 156.821C126.352 156.585 126.525 156.382 126.74 156.23C127.244 155.872 127.853 155.692 128.47 155.72V155.72Z" fill="#212121"/>
<path d="M133 155.85L134.51 159.28L136.04 155.85H137.85L133.44 165.45H131.64L133.64 161.05L131.15 155.85H133Z" fill="#212121"/>
</svg>
