<svg width="170" height="188" viewBox="0 0 170 188" fill="none" xmlns="http://www.w3.org/2000/svg">
<path d="M46.42 9.25H108.32V99.13H46.42V9.25Z" fill="white"/>
<path d="M108.27 100.37H46.42C46.0955 100.367 45.7852 100.237 45.5567 100.006C45.3282 99.7758 45.2 99.4645 45.2 99.14V9.22C45.2 8.89644 45.3285 8.58612 45.5573 8.35733C45.7861 8.12853 46.0964 8 46.42 8H108.27C108.594 7.99999 108.906 8.1282 109.136 8.35672C109.367 8.58523 109.497 8.89552 109.5 9.22V99.13C109.497 99.4545 109.367 99.7648 109.136 99.9933C108.906 100.222 108.594 100.35 108.27 100.35V100.37ZM47.63 97.92H107.05V10.45H47.67L47.63 97.92Z" fill="black"/>
<path d="M53.7 16.34H63.1V25.74H53.7V16.34Z" fill="white"/>
<path d="M63.1 27H53.7C53.539 27 53.3795 26.9681 53.2308 26.9062C53.0822 26.8442 52.9472 26.7535 52.8338 26.6391C52.7204 26.5248 52.6307 26.3891 52.57 26.2399C52.5093 26.0908 52.4787 25.931 52.48 25.77V16.34C52.48 16.0164 52.6086 15.7061 52.8374 15.4773C53.0661 15.2485 53.3765 15.12 53.7 15.12H63.1C63.4236 15.12 63.7339 15.2485 63.9627 15.4773C64.1915 15.7061 64.32 16.0164 64.32 16.34V25.73C64.3268 25.8944 64.3002 26.0584 64.2419 26.2122C64.1836 26.3661 64.0948 26.5065 63.9809 26.6252C63.8669 26.7438 63.7301 26.8382 63.5787 26.9026C63.4274 26.967 63.2645 27.0001 63.1 27V27ZM55 24.53H61.9V17.53H55V24.53Z" fill="black"/>
<path d="M100.85 22.19H67.69C67.3842 22.1623 67.0998 22.0213 66.8927 21.7946C66.6856 21.568 66.5708 21.272 66.5708 20.965C66.5708 20.6579 66.6856 20.362 66.8927 20.1353C67.0998 19.9087 67.3842 19.7676 67.69 19.74H100.85C101.02 19.7246 101.192 19.7448 101.354 19.7994C101.516 19.854 101.664 19.9417 101.79 20.0569C101.917 20.1722 102.017 20.3124 102.086 20.4688C102.155 20.6251 102.191 20.7941 102.191 20.965C102.191 21.1359 102.155 21.3048 102.086 21.4612C102.017 21.6175 101.917 21.7578 101.79 21.8731C101.664 21.9883 101.516 22.076 101.354 22.1306C101.192 22.1851 101.02 22.2054 100.85 22.19V22.19Z" fill="black"/>
<path d="M53.7 32.97H63.1V42.37H53.7V32.97Z" fill="white"/>
<path d="M63.1 43.6H53.7C53.539 43.6 53.3795 43.5681 53.2308 43.5062C53.0822 43.4443 52.9472 43.3535 52.8338 43.2392C52.7204 43.1248 52.6307 42.9891 52.57 42.84C52.5093 42.6908 52.4787 42.5311 52.48 42.37V33C52.4787 32.839 52.5093 32.6792 52.57 32.5301C52.6307 32.3809 52.7204 32.2452 52.8338 32.1309C52.9472 32.0165 53.0822 31.9258 53.2308 31.8638C53.3795 31.8019 53.539 31.77 53.7 31.77H63.1C63.4245 31.7727 63.7348 31.9034 63.9633 32.1338C64.1918 32.3642 64.32 32.6755 64.32 33V42.3C64.32 42.6236 64.1915 42.9339 63.9627 43.1627C63.7339 43.3915 63.4236 43.52 63.1 43.52V43.6ZM55 41.15H61.9V34.2H55V41.15Z" fill="black"/>
<path d="M100.85 38.81H67.69C67.3842 38.7823 67.0998 38.6413 66.8927 38.4146C66.6856 38.188 66.5708 37.892 66.5708 37.585C66.5708 37.2779 66.6856 36.982 66.8927 36.7553C67.0998 36.5287 67.3842 36.3876 67.69 36.36H100.85C101.02 36.3446 101.192 36.3648 101.354 36.4194C101.516 36.474 101.664 36.5617 101.79 36.6769C101.917 36.7922 102.017 36.9324 102.086 37.0888C102.155 37.2451 102.191 37.4141 102.191 37.585C102.191 37.7558 102.155 37.9248 102.086 38.0812C102.017 38.2375 101.917 38.3778 101.79 38.493C101.664 38.6083 101.516 38.696 101.354 38.7506C101.192 38.8051 101.02 38.8254 100.85 38.81V38.81Z" fill="black"/>
<path d="M53.7 49.59H63.1V58.99H53.7V49.59Z" fill="white"/>
<path d="M63.1 60.22H53.7C53.3765 60.22 53.0661 60.0914 52.8374 59.8626C52.6086 59.6338 52.48 59.3235 52.48 59V49.65C52.4787 49.4894 52.5093 49.3301 52.5702 49.1815C52.631 49.0329 52.7208 48.8979 52.8344 48.7843C52.9479 48.6708 53.083 48.581 53.2316 48.5201C53.3802 48.4593 53.5394 48.4286 53.7 48.43H63.1C63.4236 48.43 63.7339 48.5585 63.9627 48.7873C64.1915 49.0161 64.32 49.3264 64.32 49.65V59C64.32 59.3245 64.1918 59.6358 63.9633 59.8662C63.7348 60.0966 63.4245 60.2273 63.1 60.23V60.22ZM55 57.77H61.9V50.88H55V57.77Z" fill="black"/>
<path d="M100.85 55.43H67.69C67.3842 55.4023 67.0998 55.2613 66.8927 55.0346C66.6856 54.8079 66.5708 54.512 66.5708 54.205C66.5708 53.8979 66.6856 53.602 66.8927 53.3753C67.0998 53.1487 67.3842 53.0076 67.69 52.98H100.85C101.02 52.9646 101.192 52.9848 101.354 53.0394C101.516 53.094 101.664 53.1817 101.79 53.2969C101.917 53.4122 102.017 53.5524 102.086 53.7088C102.155 53.8651 102.191 54.0341 102.191 54.205C102.191 54.3758 102.155 54.5448 102.086 54.7012C102.017 54.8575 101.917 54.9978 101.79 55.113C101.664 55.2283 101.516 55.316 101.354 55.3706C101.192 55.4251 101.02 55.4454 100.85 55.43V55.43Z" fill="black"/>
<path d="M53.7 66.21H63.1V75.61H53.7V66.21Z" fill="white"/>
<path d="M63.1 76.85H53.7C53.539 76.85 53.3795 76.8181 53.2308 76.7562C53.0822 76.6943 52.9472 76.6035 52.8338 76.4891C52.7204 76.3748 52.6307 76.2391 52.57 76.0899C52.5093 75.9408 52.4787 75.7811 52.48 75.62V66.21C52.4827 65.8882 52.6124 65.5804 52.8409 65.3538C53.0694 65.1272 53.3782 65 53.7 65H63.1C63.4236 65 63.7339 65.1285 63.9627 65.3573C64.1915 65.5861 64.32 65.8964 64.32 66.22V75.6C64.324 75.7606 64.296 75.9203 64.2376 76.0699C64.1792 76.2196 64.0916 76.3561 63.9799 76.4715C63.8682 76.5869 63.7346 76.6789 63.587 76.7422C63.4394 76.8055 63.2806 76.8387 63.12 76.84L63.1 76.85ZM55 74.4H61.9V67.46H55V74.4Z" fill="black"/>
<path d="M100.85 72.06H67.69C67.3842 72.0323 67.0998 71.8913 66.8927 71.6646C66.6856 71.4379 66.5708 71.142 66.5708 70.835C66.5708 70.5279 66.6856 70.232 66.8927 70.0053C67.0998 69.7787 67.3842 69.6376 67.69 69.61H100.85C101.02 69.5946 101.192 69.6148 101.354 69.6694C101.516 69.724 101.664 69.8117 101.79 69.9269C101.917 70.0422 102.017 70.1824 102.086 70.3388C102.155 70.4951 102.191 70.6641 102.191 70.835C102.191 71.0058 102.155 71.1748 102.086 71.3312C102.017 71.4875 101.917 71.6278 101.79 71.743C101.664 71.8583 101.516 71.946 101.354 72.0006C101.192 72.0551 101.02 72.0754 100.85 72.06V72.06Z" fill="black"/>
<path d="M53.7 82.84H63.1V92.24H53.7V82.84Z" fill="white"/>
<path d="M63.1 93.47H53.7C53.539 93.47 53.3795 93.4381 53.2308 93.3762C53.0822 93.3142 52.9472 93.2235 52.8338 93.1091C52.7204 92.9948 52.6307 92.8591 52.57 92.7099C52.5093 92.5608 52.4787 92.401 52.48 92.24V82.84C52.4787 82.6789 52.5093 82.5192 52.57 82.37C52.6307 82.2209 52.7204 82.0852 52.8338 81.9708C52.9472 81.8565 53.0822 81.7657 53.2308 81.7038C53.3795 81.6419 53.539 81.61 53.7 81.61H63.1C63.4245 81.6126 63.7348 81.7434 63.9633 81.9738C64.1918 82.2041 64.32 82.5155 64.32 82.84V92.22C64.32 92.5436 64.1915 92.8539 63.9627 93.0827C63.7339 93.3115 63.4236 93.44 63.1 93.44V93.47ZM55 91H61.9V84.08H55V91Z" fill="black"/>
<path d="M100.85 88.68H67.69C67.3842 88.6523 67.0998 88.5113 66.8927 88.2846C66.6856 88.0579 66.5708 87.762 66.5708 87.455C66.5708 87.1479 66.6856 86.852 66.8927 86.6253C67.0998 86.3986 67.3842 86.2576 67.69 86.23H100.85C101.02 86.2146 101.192 86.2348 101.354 86.2894C101.516 86.3439 101.664 86.4317 101.79 86.5469C101.917 86.6622 102.017 86.8024 102.086 86.9588C102.155 87.1151 102.191 87.2841 102.191 87.455C102.191 87.6258 102.155 87.7948 102.086 87.9512C102.017 88.1075 101.917 88.2478 101.79 88.363C101.664 88.4783 101.516 88.566 101.354 88.6206C101.192 88.6751 101.02 88.6954 100.85 88.68V88.68Z" fill="black"/>
<path d="M123.56 65.83L112.11 54.38L84.62 81.87L73.75 71L62.3 82.47L84.58 104.75L84.62 104.73L84.64 104.75L123.56 65.83Z" fill="#D40119"/>
<path d="M84.64 106C84.4708 106.005 84.3025 105.975 84.1457 105.911C83.989 105.848 83.8474 105.752 83.73 105.63L61.42 83.35C61.306 83.2366 61.2155 83.1018 61.1538 82.9534C61.0921 82.8049 61.0603 82.6457 61.0603 82.485C61.0603 82.3242 61.0921 82.165 61.1538 82.0166C61.2155 81.8681 61.306 81.7334 61.42 81.62L72.88 70.13C73.1119 69.9016 73.4244 69.7736 73.75 69.7736C74.0755 69.7736 74.388 69.9016 74.62 70.13L84.62 80.13L111.24 53.53C111.353 53.4148 111.487 53.3232 111.636 53.2608C111.784 53.1983 111.944 53.1661 112.105 53.1661C112.266 53.1661 112.426 53.1983 112.574 53.2608C112.723 53.3232 112.857 53.4148 112.97 53.53L124.44 65C124.554 65.1134 124.644 65.2481 124.706 65.3966C124.768 65.545 124.8 65.7042 124.8 65.865C124.8 66.0257 124.768 66.1849 124.706 66.3334C124.644 66.4818 124.554 66.6166 124.44 66.73L85.53 105.63C85.4138 105.748 85.2752 105.841 85.1224 105.905C84.9695 105.969 84.8055 106.001 84.64 106ZM64.06 82.47L84.62 103L121.75 65.82L112.1 56.12L85.5 82.73C85.2685 82.9554 84.9581 83.0815 84.635 83.0815C84.3118 83.0815 84.0015 82.9554 83.77 82.73L73.77 72.73L64.06 82.47Z" fill="black"/>
<path d="M71.51 125.78L65.4 139.49H62.71L56.71 125.78H61L64.09 133.59L67.28 125.78H71.51Z" fill="#D30119"/>
<path d="M82.56 138.82C82.05 139.02 81.56 139.18 81.14 139.31C80.6236 139.44 80.0923 139.5 79.56 139.49C79.1342 139.532 78.7068 139.426 78.35 139.19C78.1286 138.983 77.9605 138.726 77.86 138.44C77.4791 138.751 77.0546 139.003 76.6 139.19C76.0231 139.411 75.4074 139.513 74.79 139.49C74.1846 139.518 73.5822 139.391 73.04 139.12C72.6258 138.898 72.2957 138.547 72.1 138.12C71.9225 137.752 71.8302 137.349 71.83 136.94C71.8072 136.396 71.9693 135.86 72.29 135.42C72.6251 134.996 73.0526 134.654 73.54 134.42C74.2125 134.113 74.9039 133.849 75.61 133.63L76.72 133.28L77.28 133.08C77.4137 133.032 77.5441 132.976 77.67 132.91C77.6878 132.513 77.5868 132.12 77.38 131.78C77.18 131.5 76.76 131.37 76.11 131.37C75.3667 131.361 74.6323 131.533 73.97 131.87C73.3059 132.216 72.6961 132.657 72.16 133.18V130.49C72.5983 130.173 73.0755 129.915 73.58 129.72C74.093 129.518 74.6259 129.37 75.17 129.28C75.7243 129.18 76.2866 129.129 76.85 129.13C77.9943 129.051 79.1336 129.342 80.1 129.96C80.4511 130.229 80.7325 130.578 80.9204 130.978C81.1084 131.379 81.1974 131.818 81.18 132.26V136.1C81.1683 136.378 81.2055 136.655 81.29 136.92C81.3124 137 81.3611 137.07 81.4282 137.119C81.4953 137.168 81.577 137.193 81.66 137.19C81.9776 137.16 82.2848 137.061 82.56 136.9V138.82ZM77.67 136.91V134.56C77.0311 134.801 76.4181 135.106 75.84 135.47C75.6596 135.59 75.5127 135.754 75.413 135.946C75.3133 136.139 75.2641 136.353 75.27 136.57C75.2624 136.71 75.2843 136.85 75.3342 136.981C75.3842 137.112 75.4611 137.231 75.56 137.33C75.6468 137.416 75.7498 137.484 75.8631 137.531C75.9763 137.577 76.0976 137.601 76.22 137.6C76.4732 137.596 76.7211 137.527 76.94 137.4C77.1931 137.252 77.4369 137.088 77.67 136.91Z" fill="#D30119"/>
<path d="M87.41 139.32H83.88V125.78H87.41V139.32Z" fill="#D30119"/>
<path d="M100.34 139.32H96.82V137.9C96.3813 138.396 95.8518 138.803 95.2601 139.1C94.6315 139.38 93.9477 139.513 93.2601 139.49C91.7601 139.49 90.79 139.06 90.34 138.18C89.8839 137.247 89.6576 136.218 89.68 135.18V129.34H93.2V134.71C93.19 135.197 93.2819 135.681 93.4701 136.13C93.5789 136.339 93.7495 136.51 93.9589 136.62C94.1682 136.729 94.406 136.771 94.64 136.74C94.8624 136.751 95.0846 136.717 95.2939 136.642C95.5033 136.566 95.6957 136.45 95.86 136.3C96.2024 135.957 96.5105 135.582 96.78 135.18V129.34H100.3L100.34 139.32Z" fill="#D30119"/>
<path d="M112.83 135.2H105.83C105.962 135.803 106.32 136.332 106.83 136.68C107.36 137.061 107.997 137.264 108.65 137.26C110.013 137.212 111.35 136.871 112.57 136.26V138.44C111.97 138.739 111.344 138.984 110.7 139.17C109.789 139.404 108.85 139.511 107.91 139.49C106.827 139.526 105.751 139.292 104.78 138.81C103.967 138.394 103.296 137.747 102.85 136.95C102.418 136.134 102.198 135.223 102.21 134.3C102.197 133.387 102.418 132.485 102.85 131.68C103.292 130.89 103.966 130.255 104.78 129.86C105.756 129.394 106.829 129.168 107.91 129.2C108.719 129.2 109.517 129.378 110.25 129.72C111.025 130.091 111.669 130.687 112.1 131.43C112.624 132.362 112.877 133.422 112.83 134.49V135.2ZM109.53 133.46C109.559 132.909 109.388 132.366 109.05 131.93C108.883 131.737 108.673 131.585 108.437 131.486C108.201 131.387 107.945 131.344 107.69 131.36C107.426 131.35 107.162 131.396 106.917 131.496C106.672 131.596 106.451 131.747 106.27 131.94C105.899 132.357 105.705 132.902 105.73 133.46H109.53Z" fill="#D30119"/>
<path d="M8.79 152.68V162.23H6.94V152.68H8.79Z" fill="#212121"/>
<path d="M14.37 155.72C14.5983 155.722 14.8234 155.773 15.03 155.87C15.3041 156.007 15.5596 156.178 15.79 156.38L15.18 157.85C14.8526 157.55 14.4406 157.358 14 157.3C13.7184 157.309 13.4478 157.411 13.23 157.59C12.9695 157.796 12.7606 158.059 12.62 158.36C12.4674 158.671 12.3887 159.013 12.39 159.36V162.27H10.72V155.89H12.4V157.51C12.6196 157.012 12.9318 156.561 13.32 156.18C13.456 156.038 13.6188 155.924 13.799 155.845C13.9792 155.766 14.1733 155.724 14.37 155.72V155.72Z" fill="#212121"/>
<path d="M20.22 155.72C20.4485 155.72 20.6741 155.771 20.88 155.87C21.1541 156.007 21.4095 156.178 21.64 156.38L21.04 157.85C20.7115 157.551 20.3 157.36 19.86 157.3C19.5784 157.309 19.3078 157.411 19.09 157.59C18.8324 157.8 18.6238 158.063 18.4787 158.362C18.3336 158.661 18.2555 158.988 18.25 159.32V162.23H16.57V155.85H18.25V157.47C18.4733 156.974 18.785 156.524 19.17 156.14C19.4512 155.867 19.8284 155.717 20.22 155.72V155.72Z" fill="#212121"/>
<path d="M25 155.72C25.4147 155.7 25.8288 155.77 26.2138 155.925C26.5988 156.081 26.9455 156.318 27.23 156.62C27.8098 157.32 28.1029 158.213 28.05 159.12V159.37H23.53C23.5684 159.875 23.7972 160.347 24.17 160.69C24.5877 161.017 25.1103 161.181 25.64 161.15C26.0362 161.151 26.4293 161.08 26.8 160.94C27.209 160.781 27.5955 160.569 27.95 160.31V161.56C27.1505 162.106 26.1976 162.383 25.23 162.35C24.7801 162.369 24.331 162.298 23.9087 162.142C23.4864 161.986 23.0994 161.747 22.77 161.44C22.44 161.132 22.18 160.756 22.0075 160.338C21.835 159.921 21.754 159.471 21.77 159.02C21.7515 158.586 21.8198 158.153 21.9709 157.746C22.122 157.339 22.3529 156.967 22.65 156.65C22.9505 156.333 23.3164 156.086 23.7223 155.925C24.1282 155.765 24.5642 155.695 25 155.72V155.72ZM26.47 158.35C26.4416 157.953 26.2953 157.573 26.05 157.26C25.9219 157.126 25.766 157.022 25.5932 156.954C25.4205 156.887 25.235 156.858 25.05 156.87C24.8664 156.864 24.6834 156.894 24.5117 156.959C24.34 157.024 24.183 157.123 24.05 157.25C23.7686 157.552 23.5961 157.939 23.56 158.35H26.47Z" fill="#212121"/>
<path d="M31.44 155.72C31.7771 155.718 32.113 155.758 32.44 155.84C32.7851 155.933 33.1201 156.06 33.44 156.22V157.57C33.1268 157.366 32.7913 157.198 32.44 157.07C32.119 156.953 31.7814 156.889 31.44 156.88C31.2436 156.871 31.0488 156.919 30.88 157.02C30.8136 157.061 30.7592 157.118 30.7223 157.187C30.6854 157.255 30.6674 157.332 30.67 157.41C30.6762 157.468 30.6946 157.523 30.7239 157.573C30.7532 157.623 30.7928 157.666 30.84 157.7C31.14 157.896 31.4542 158.07 31.78 158.22C32.3427 158.465 32.8599 158.803 33.31 159.22C33.4548 159.368 33.5683 159.543 33.6439 159.735C33.7195 159.928 33.7556 160.133 33.75 160.34C33.7641 160.615 33.7136 160.889 33.6025 161.141C33.4913 161.393 33.3226 161.615 33.11 161.79C32.6119 162.169 31.9947 162.357 31.37 162.32C30.9421 162.323 30.5154 162.273 30.1 162.17C29.7533 162.091 29.4176 161.97 29.1 161.81V160.41C29.7228 160.805 30.4342 161.039 31.17 161.09C31.4123 161.1 31.6532 161.049 31.87 160.94C31.9465 160.902 32.0112 160.843 32.057 160.771C32.1028 160.699 32.1281 160.616 32.13 160.53C32.1307 160.433 32.0991 160.338 32.04 160.26C31.9569 160.162 31.859 160.078 31.75 160.01C31.6233 159.917 31.2233 159.707 30.55 159.38C30.1189 159.195 29.7307 158.922 29.41 158.58C29.1738 158.3 29.0429 157.946 29.04 157.58C29.0313 157.317 29.0879 157.056 29.2049 156.821C29.3218 156.585 29.4954 156.382 29.71 156.23C30.2136 155.872 30.8226 155.692 31.44 155.72V155.72Z" fill="#212121"/>
<path d="M35.92 152.89C36.1764 152.903 36.4181 153.014 36.595 153.2C36.7718 153.386 36.8703 153.633 36.87 153.89C36.8639 154.141 36.764 154.38 36.59 154.56C36.5048 154.652 36.4011 154.726 36.2857 154.776C36.1703 154.826 36.0457 154.851 35.92 154.85C35.7944 154.85 35.6702 154.824 35.555 154.774C35.4398 154.724 35.336 154.652 35.25 154.56C35.1612 154.472 35.0907 154.368 35.0427 154.253C34.9946 154.138 34.9699 154.015 34.97 153.89C34.9669 153.765 34.9903 153.641 35.0385 153.525C35.0868 153.41 35.1588 153.306 35.25 153.22C35.3332 153.122 35.4356 153.042 35.5508 152.986C35.666 152.929 35.7917 152.896 35.92 152.89V152.89ZM36.76 155.89V162.27H35.08V155.89H36.76Z" fill="#212121"/>
<path d="M40.57 155.72C40.9071 155.718 41.2431 155.758 41.57 155.84C41.9153 155.933 42.2504 156.06 42.57 156.22V157.57C42.2572 157.365 41.9216 157.197 41.57 157.07C41.2488 156.954 40.9113 156.89 40.57 156.88C40.3723 156.863 40.1739 156.904 40 157C39.9348 157.041 39.8818 157.099 39.8466 157.168C39.8114 157.236 39.7953 157.313 39.8 157.39C39.8042 157.448 39.8217 157.505 39.8512 157.555C39.8807 157.605 39.9213 157.648 39.97 157.68C40.2646 157.88 40.5757 158.054 40.9 158.2C41.4641 158.448 41.9842 158.785 42.44 159.2C42.7287 159.501 42.8868 159.903 42.88 160.32C42.8942 160.595 42.8436 160.869 42.7325 161.121C42.6213 161.373 42.4527 161.595 42.24 161.77C41.7419 162.149 41.1247 162.337 40.5 162.3C40.0688 162.303 39.6389 162.253 39.22 162.15C38.8734 162.071 38.5376 161.95 38.22 161.79V160.39C38.8456 160.787 39.5607 161.021 40.3 161.07C40.5355 161.108 40.7767 161.083 41 161C41.0792 160.964 41.1465 160.907 41.1943 160.834C41.2421 160.761 41.2683 160.677 41.27 160.59C41.2723 160.491 41.2366 160.394 41.17 160.32C41.0908 160.222 40.9962 160.138 40.89 160.07C40.7634 159.977 40.3634 159.767 39.69 159.44C39.2574 159.257 38.8688 158.985 38.55 158.64C38.31 158.362 38.1786 158.007 38.18 157.64C38.172 157.378 38.2279 157.119 38.3429 156.883C38.4579 156.648 38.6285 156.444 38.84 156.29C39.3378 155.914 39.9462 155.713 40.57 155.72V155.72Z" fill="#212121"/>
<path d="M45.9 154.15H46V155.85H48.19V157.12H46V160.06C45.993 160.318 46.0862 160.569 46.26 160.76C46.361 160.847 46.4786 160.914 46.6057 160.955C46.7328 160.996 46.8669 161.011 47 161C47.4794 160.975 47.9443 160.827 48.35 160.57V162C47.8142 162.252 47.2317 162.388 46.64 162.4C46.3355 162.42 46.0301 162.378 45.7417 162.279C45.4533 162.179 45.1875 162.023 44.96 161.82C44.7531 161.61 44.5921 161.359 44.4871 161.084C44.3821 160.809 44.3354 160.514 44.35 160.22V157.22H43.35V156.94L45.9 154.15Z" fill="#212121"/>
<path d="M50.21 152.89C50.4605 152.896 50.6997 152.996 50.88 153.17C50.9702 153.257 51.0416 153.361 51.0897 153.476C51.1379 153.591 51.1618 153.715 51.16 153.84C51.1566 154.089 51.0603 154.328 50.89 154.51C50.8029 154.603 50.6975 154.676 50.5804 154.726C50.4634 154.776 50.3372 154.801 50.21 154.8C50.0859 154.8 49.963 154.775 49.8493 154.725C49.7357 154.675 49.6337 154.602 49.55 154.51C49.3724 154.331 49.2688 154.092 49.26 153.84C49.26 153.575 49.3654 153.32 49.5529 153.133C49.7404 152.945 49.9948 152.84 50.26 152.84L50.21 152.89ZM51.05 155.89V162.27H49.37V155.89H51.05Z" fill="#212121"/>
<path d="M54.47 152.68V156.26C54.9602 155.902 55.5531 155.713 56.16 155.72C56.6992 155.715 57.2291 155.86 57.69 156.14C58.1479 156.416 58.516 156.819 58.75 157.3C59.0114 157.817 59.1419 158.391 59.13 158.97C59.1541 159.425 59.0839 159.88 58.9238 160.307C58.7638 160.734 58.5174 161.123 58.2 161.45C57.4964 162.079 56.5721 162.402 55.63 162.35C54.6578 162.35 53.6943 162.167 52.79 161.81V152.68H54.47ZM54.47 160.9C54.8777 161.027 55.3031 161.088 55.73 161.08C55.9642 161.087 56.1969 161.04 56.4102 160.943C56.6234 160.846 56.8115 160.701 56.96 160.52C57.2829 160.066 57.4416 159.516 57.41 158.96C57.4417 158.439 57.2776 157.926 56.95 157.52C56.8031 157.343 56.6176 157.203 56.4078 157.109C56.198 157.016 55.9696 156.971 55.74 156.98C55.5198 156.977 55.3015 157.021 55.1 157.11C54.8733 157.215 54.6615 157.35 54.47 157.51V160.9Z" fill="#212121"/>
<path d="M62.21 152.68V162.23H60.53V152.68H62.21Z" fill="#212121"/>
<path d="M66.8 155.72C67.2147 155.7 67.6288 155.77 68.0138 155.925C68.3988 156.081 68.7455 156.318 69.03 156.62C69.6098 157.32 69.9029 158.213 69.85 159.12V159.37H65.33C65.3684 159.875 65.5972 160.347 65.97 160.69C66.3877 161.017 66.9103 161.181 67.44 161.15C67.8363 161.152 68.2295 161.081 68.6 160.94C69.0112 160.779 69.4008 160.567 69.76 160.31V161.56C68.9559 162.104 68.0005 162.381 67.03 162.35C66.5801 162.369 66.131 162.298 65.7087 162.142C65.2864 161.986 64.8993 161.747 64.57 161.44C64.24 161.132 63.98 160.756 63.8075 160.338C63.635 159.921 63.554 159.471 63.57 159.02C63.5515 158.586 63.6198 158.153 63.7709 157.746C63.922 157.339 64.1529 156.967 64.45 156.65C64.7529 156.337 65.1192 156.091 65.5245 155.931C65.9298 155.771 66.3646 155.699 66.8 155.72V155.72ZM68.27 158.35C68.2535 157.95 68.1059 157.567 67.85 157.26C67.7223 157.125 67.5665 157.021 67.3936 156.953C67.2207 156.886 67.0351 156.857 66.85 156.87C66.4797 156.86 66.1205 156.997 65.85 157.25C65.5685 157.552 65.3961 157.939 65.36 158.35H68.27Z" fill="#212121"/>
<path d="M79.37 156V152.69H81.05V162.24H78.05C77.6022 162.263 77.1543 162.197 76.7321 162.046C76.3099 161.895 75.9218 161.662 75.59 161.36C75.2773 161.045 75.034 160.667 74.8755 160.252C74.7171 159.837 74.6471 159.394 74.67 158.95C74.6662 158.375 74.8145 157.809 75.1 157.31C75.3822 156.825 75.7897 156.424 76.28 156.15C76.7711 155.873 77.326 155.728 77.89 155.73C78.3955 155.731 78.8967 155.823 79.37 156V156ZM78.49 160.95H79.37V157.26C79.0379 157.082 78.6668 156.989 78.29 156.99C78.0421 156.98 77.7948 157.022 77.564 157.113C77.3332 157.205 77.1241 157.343 76.95 157.52C76.6081 157.896 76.4284 158.392 76.45 158.9C76.4119 159.177 76.4384 159.459 76.5274 159.724C76.6165 159.989 76.7656 160.229 76.9632 160.427C77.1608 160.624 77.4015 160.774 77.6664 160.863C77.9313 160.952 78.2132 160.978 78.49 160.94V160.95Z" fill="#212121"/>
<path d="M85.59 155.72C86.0047 155.7 86.4188 155.77 86.8038 155.925C87.1888 156.081 87.5355 156.318 87.82 156.62C88.3955 157.322 88.6879 158.214 88.64 159.12V159.37H84.12C84.1584 159.875 84.3872 160.347 84.76 160.69C85.1768 161.019 85.7001 161.183 86.23 161.15C86.6262 161.151 87.0193 161.08 87.39 160.94C87.798 160.779 88.1843 160.567 88.54 160.31V161.56C87.7399 162.105 86.7874 162.381 85.82 162.35C85.3686 162.369 84.9179 162.298 84.4939 162.142C84.07 161.986 83.6812 161.747 83.35 161.44C83.02 161.132 82.76 160.756 82.5875 160.338C82.415 159.921 82.334 159.471 82.35 159.02C82.3334 158.586 82.4035 158.152 82.5563 157.745C82.7091 157.338 82.9416 156.966 83.24 156.65C83.5404 156.333 83.9064 156.086 84.3123 155.925C84.7182 155.765 85.1542 155.695 85.59 155.72V155.72ZM87.06 158.35C87.0357 157.95 86.8852 157.569 86.63 157.26C86.5032 157.124 86.3475 157.019 86.1744 156.951C86.0013 156.884 85.8152 156.856 85.63 156.87C85.2599 156.861 84.901 156.998 84.63 157.25C84.3523 157.554 84.1804 157.94 84.14 158.35H87.06Z" fill="#212121"/>
<path d="M92.25 155.72C92.9189 155.676 93.5828 155.863 94.13 156.25C94.3451 156.423 94.5161 156.645 94.6291 156.897C94.742 157.149 94.7938 157.424 94.78 157.7V160.83C94.78 161.07 94.88 161.19 95.08 161.19C95.1991 161.181 95.3148 161.147 95.42 161.09C95.5531 161.022 95.6773 160.938 95.79 160.84V161.84C95.3138 162.166 94.7564 162.353 94.18 162.38C93.9406 162.394 93.7019 162.342 93.49 162.23C93.4 162.17 93.3234 162.092 93.2649 162C93.2064 161.909 93.1673 161.807 93.15 161.7C92.5926 162.128 91.9127 162.366 91.21 162.38C90.9927 162.385 90.7766 162.347 90.5741 162.268C90.3716 162.189 90.1867 162.071 90.03 161.92C89.8714 161.78 89.7448 161.607 89.6585 161.414C89.5723 161.221 89.5284 161.012 89.53 160.8C89.5192 160.561 89.5571 160.323 89.6413 160.1C89.7255 159.876 89.8544 159.672 90.02 159.5C90.5251 159.092 91.1168 158.805 91.75 158.66L93.11 158.27V157.97C93.11 157.35 92.73 157.04 91.97 157.04C91.5725 157.044 91.1804 157.132 90.82 157.3C90.4381 157.495 90.0983 157.764 89.82 158.09V156.58C90.5095 156.027 91.3661 155.724 92.25 155.72V155.72ZM91.25 160.52C91.2448 160.624 91.2617 160.727 91.2996 160.824C91.3376 160.92 91.3956 161.008 91.47 161.08C91.6183 161.22 91.8161 161.296 92.02 161.29C92.4393 161.267 92.835 161.089 93.13 160.79V159.11C92.7497 159.233 92.3787 159.384 92.02 159.56C91.801 159.665 91.6041 159.811 91.44 159.99C91.303 160.132 91.2275 160.323 91.23 160.52H91.25Z" fill="#212121"/>
<path d="M98.45 152.68V162.23H96.77V152.68H98.45Z" fill="#212121"/>
<path d="M102.26 155.72C102.597 155.718 102.933 155.758 103.26 155.84C103.605 155.933 103.94 156.06 104.26 156.22V157.57C103.947 157.366 103.611 157.198 103.26 157.07C102.939 156.953 102.601 156.889 102.26 156.88C102.064 156.871 101.869 156.919 101.7 157.02C101.634 157.061 101.579 157.118 101.542 157.187C101.505 157.255 101.487 157.332 101.49 157.41C101.496 157.468 101.515 157.523 101.544 157.573C101.573 157.623 101.613 157.666 101.66 157.7C101.96 157.896 102.274 158.07 102.6 158.22C103.163 158.465 103.68 158.803 104.13 159.22C104.275 159.368 104.388 159.543 104.464 159.735C104.54 159.928 104.576 160.133 104.57 160.34C104.584 160.615 104.534 160.889 104.422 161.141C104.311 161.393 104.143 161.615 103.93 161.79C103.432 162.169 102.815 162.357 102.19 162.32C101.762 162.323 101.335 162.273 100.92 162.17C100.573 162.091 100.238 161.97 99.92 161.81V160.41C100.543 160.805 101.254 161.039 101.99 161.09C102.232 161.1 102.473 161.049 102.69 160.94C102.767 160.902 102.831 160.843 102.877 160.771C102.923 160.699 102.948 160.616 102.95 160.53C102.951 160.433 102.919 160.338 102.86 160.26C102.777 160.162 102.679 160.078 102.57 160.01C102.443 159.917 102.043 159.707 101.37 159.38C100.939 159.195 100.551 158.922 100.23 158.58C99.9938 158.3 99.8629 157.946 99.86 157.58C99.8513 157.317 99.908 157.056 100.025 156.821C100.142 156.585 100.315 156.382 100.53 156.23C101.034 155.872 101.643 155.692 102.26 155.72V155.72Z" fill="#212121"/>
<path d="M112.42 152.56C112.621 152.562 112.821 152.579 113.02 152.61C113.195 152.64 113.367 152.69 113.53 152.76V154.12C113.281 154.059 113.026 154.029 112.77 154.03C112.605 154.016 112.439 154.036 112.282 154.089C112.126 154.142 111.982 154.228 111.86 154.34C111.643 154.627 111.537 154.982 111.56 155.34V155.8H112.66V157.07H111.56V162.18H109.88V157.07H109V155.8H109.91V155.32C109.868 154.572 110.119 153.836 110.61 153.27C110.844 153.029 111.126 152.842 111.438 152.719C111.75 152.597 112.085 152.542 112.42 152.56V152.56Z" fill="#212121"/>
<path d="M116.72 155.72C117.348 155.712 117.969 155.856 118.53 156.14C119.052 156.403 119.489 156.809 119.79 157.31C120.086 157.827 120.238 158.414 120.23 159.01C120.245 159.618 120.096 160.219 119.8 160.75C119.506 161.253 119.071 161.66 118.55 161.92C117.984 162.21 117.356 162.357 116.72 162.35C116.084 162.36 115.455 162.212 114.89 161.92C114.372 161.658 113.942 161.252 113.65 160.75C113.354 160.219 113.205 159.618 113.22 159.01C113.21 158.409 113.365 157.818 113.67 157.3C113.968 156.799 114.406 156.396 114.93 156.14C115.483 155.856 116.098 155.712 116.72 155.72V155.72ZM115 159C114.973 159.549 115.139 160.091 115.47 160.53C115.62 160.716 115.81 160.864 116.027 160.963C116.244 161.062 116.482 161.109 116.72 161.1C116.964 161.112 117.208 161.069 117.433 160.974C117.658 160.879 117.859 160.734 118.02 160.55C118.359 160.104 118.526 159.55 118.49 158.99C118.525 158.447 118.354 157.911 118.01 157.49C117.848 157.311 117.649 157.17 117.425 157.078C117.202 156.986 116.961 156.946 116.72 156.96C116.484 156.951 116.249 156.997 116.034 157.095C115.819 157.192 115.63 157.337 115.48 157.52C115.145 157.938 114.974 158.465 115 159V159Z" fill="#212121"/>
<path d="M125.23 155.72C125.458 155.722 125.683 155.773 125.89 155.87C126.161 156.007 126.413 156.179 126.64 156.38L126.04 157.85C125.715 157.552 125.307 157.36 124.87 157.3C124.588 157.309 124.318 157.411 124.1 157.59C123.839 157.796 123.631 158.059 123.49 158.36C123.337 158.671 123.259 159.013 123.26 159.36V162.27H121.58V155.89H123.26V157.51C123.48 157.012 123.792 156.561 124.18 156.18C124.316 156.038 124.479 155.924 124.659 155.845C124.839 155.766 125.033 155.724 125.23 155.72V155.72Z" fill="#212121"/>
<path d="M134.18 155.72C134.595 155.7 135.009 155.77 135.394 155.925C135.779 156.081 136.126 156.318 136.41 156.62C136.985 157.322 137.278 158.214 137.23 159.12V159.37H132.71C132.748 159.875 132.977 160.347 133.35 160.69C133.767 161.019 134.29 161.183 134.82 161.15C135.216 161.151 135.609 161.08 135.98 160.94C136.388 160.779 136.774 160.567 137.13 160.31V161.56C136.33 162.105 135.377 162.381 134.41 162.35C133.959 162.369 133.508 162.298 133.084 162.142C132.66 161.986 132.271 161.747 131.94 161.44C131.61 161.132 131.35 160.756 131.178 160.338C131.005 159.921 130.924 159.471 130.94 159.02C130.923 158.586 130.994 158.152 131.146 157.745C131.299 157.338 131.532 156.966 131.83 156.65C132.13 156.333 132.496 156.086 132.902 155.925C133.308 155.765 133.744 155.695 134.18 155.72V155.72ZM135.65 158.35C135.626 157.95 135.475 157.569 135.22 157.26C135.093 157.124 134.937 157.019 134.764 156.951C134.591 156.884 134.405 156.856 134.22 156.87C133.85 156.861 133.491 156.998 133.22 157.25C132.942 157.554 132.77 157.94 132.73 158.35H135.65Z" fill="#212121"/>
<path d="M139.54 155.85L141.07 159.54L142.56 155.85H144.36L141.47 162.35H140.66L137.73 155.85H139.54Z" fill="#212121"/>
<path d="M148.08 155.72C148.495 155.7 148.909 155.77 149.294 155.925C149.679 156.081 150.026 156.318 150.31 156.62C150.89 157.32 151.183 158.213 151.13 159.12V159.37H146.61C146.648 159.875 146.877 160.347 147.25 160.69C147.668 161.017 148.19 161.181 148.72 161.15C149.116 161.152 149.51 161.081 149.88 160.94C150.289 160.781 150.676 160.569 151.03 160.31V161.56C150.23 162.106 149.278 162.383 148.31 162.35C147.86 162.369 147.411 162.298 146.989 162.142C146.566 161.986 146.179 161.747 145.85 161.44C145.52 161.132 145.26 160.756 145.088 160.338C144.915 159.921 144.834 159.471 144.85 159.02C144.831 158.586 144.9 158.153 145.051 157.746C145.202 157.339 145.433 156.967 145.73 156.65C146.03 156.333 146.396 156.086 146.802 155.925C147.208 155.765 147.644 155.695 148.08 155.72V155.72ZM149.55 158.35C149.529 157.951 149.382 157.57 149.13 157.26C149.002 157.126 148.846 157.022 148.673 156.954C148.5 156.887 148.315 156.858 148.13 156.87C147.76 156.86 147.4 156.997 147.13 157.25C146.849 157.552 146.676 157.939 146.64 158.35H149.55Z" fill="#212121"/>
<path d="M156.1 155.72C156.328 155.722 156.553 155.773 156.76 155.87C157.034 156.007 157.29 156.178 157.52 156.38L156.91 157.85C156.585 157.552 156.177 157.36 155.74 157.3C155.458 157.309 155.188 157.411 154.97 157.59C154.709 157.796 154.501 158.059 154.36 158.36C154.207 158.671 154.129 159.013 154.13 159.36V162.27H152.45V155.89H154.13V157.51C154.35 157.012 154.662 156.561 155.05 156.18C155.186 156.038 155.349 155.924 155.529 155.845C155.709 155.766 155.903 155.724 156.1 155.72V155.72Z" fill="#212121"/>
<path d="M159.29 155.85L160.8 159.28L162.33 155.85H164.14L159.73 165.45H157.93L159.93 161.05L157.44 155.85H159.29Z" fill="#212121"/>
<path d="M61.74 172.15H61.87V173.85H64.06V175.12H61.87V178.06C61.863 178.318 61.9562 178.569 62.13 178.76C62.322 178.94 62.577 179.037 62.84 179.03C63.3229 179.007 63.7914 178.858 64.2 178.6V180C63.6643 180.252 63.0817 180.388 62.49 180.4C61.8721 180.438 61.2645 180.229 60.8 179.82C60.5964 179.608 60.4382 179.357 60.3351 179.082C60.2319 178.807 60.1859 178.514 60.2 178.22V175.22H59.2V174.94L61.74 172.15Z" fill="#212121"/>
<path d="M68.81 173.72C69.0352 173.721 69.2572 173.772 69.46 173.87C69.7341 174.007 69.9896 174.178 70.22 174.38L69.62 175.85C69.2915 175.551 68.88 175.36 68.44 175.3C68.1587 175.311 67.8885 175.413 67.67 175.59C67.4163 175.803 67.2109 176.067 67.0678 176.365C66.9246 176.664 66.847 176.989 66.84 177.32V180.23H65.15V173.85H66.84V175.47C67.0663 174.974 67.3815 174.523 67.77 174.14C68.0487 173.87 68.4219 173.719 68.81 173.72V173.72Z" fill="#212121"/>
<path d="M73.3 173.72C73.9689 173.676 74.6327 173.863 75.18 174.25C75.3963 174.422 75.5682 174.644 75.6813 174.896C75.7944 175.148 75.8454 175.424 75.83 175.7V178.83C75.83 179.07 75.93 179.19 76.13 179.19C76.249 179.181 76.3648 179.147 76.47 179.09C76.6031 179.022 76.7273 178.938 76.84 178.84V179.84C76.3638 180.166 75.8064 180.353 75.23 180.38C74.9906 180.394 74.7519 180.342 74.54 180.23C74.3614 180.105 74.2393 179.914 74.2 179.7C73.6426 180.128 72.9627 180.366 72.26 180.38C72.0427 180.385 71.8266 180.347 71.6241 180.268C71.4216 180.189 71.2367 180.071 71.08 179.92C70.9214 179.78 70.7948 179.607 70.7085 179.414C70.6223 179.221 70.5784 179.012 70.58 178.8C70.5692 178.561 70.607 178.323 70.6913 178.1C70.7755 177.876 70.9044 177.672 71.07 177.5C71.5751 177.092 72.1668 176.805 72.8 176.66L74.16 176.27V175.97C74.16 175.35 73.78 175.04 73.02 175.04C72.6226 175.045 72.2307 175.133 71.87 175.3C71.4701 175.49 71.1129 175.758 70.82 176.09V174.58C71.5229 174.016 72.3989 173.712 73.3 173.72V173.72ZM72.3 178.52C72.2948 178.624 72.3117 178.727 72.3496 178.824C72.3875 178.92 72.4456 179.008 72.52 179.08C72.6683 179.22 72.8661 179.296 73.07 179.29C73.4893 179.267 73.885 179.089 74.18 178.79V177.11C73.7997 177.233 73.4287 177.384 73.07 177.56C72.8509 177.665 72.6541 177.811 72.49 177.99C72.353 178.132 72.2775 178.323 72.28 178.52H72.3Z" fill="#212121"/>
<path d="M78.76 173.85L80.29 177.54L81.79 173.85H83.58L80.69 180.35H79.88L77 173.85H78.76Z" fill="#212121"/>
<path d="M87.3 173.72C87.7147 173.7 88.1288 173.77 88.5138 173.925C88.8988 174.081 89.2455 174.318 89.53 174.62C90.1099 175.32 90.4029 176.213 90.35 177.12V177.37H85.83C85.8685 177.875 86.0972 178.347 86.47 178.69C86.8908 179.019 87.4171 179.182 87.95 179.15C88.343 179.151 88.7328 179.08 89.1 178.94C89.5122 178.781 89.9021 178.569 90.26 178.31V179.56C89.459 180.103 88.5072 180.379 87.54 180.35C87.0886 180.369 86.6379 180.298 86.214 180.142C85.79 179.986 85.4012 179.747 85.07 179.44C84.7401 179.132 84.4801 178.756 84.3076 178.338C84.1351 177.921 84.0541 177.471 84.07 177.02C84.0534 176.586 84.1235 176.152 84.2764 175.745C84.4292 175.338 84.6616 174.966 84.96 174.65C85.2594 174.335 85.6237 174.088 86.0277 173.928C86.4318 173.767 86.8659 173.696 87.3 173.72V173.72ZM88.77 176.35C88.7536 175.95 88.606 175.567 88.35 175.26C88.2223 175.125 88.0665 175.021 87.8936 174.953C87.7208 174.886 87.5351 174.857 87.35 174.87C86.9797 174.86 86.6205 174.997 86.35 175.25C86.0686 175.552 85.8961 175.939 85.86 176.35H88.77Z" fill="#212121"/>
<path d="M93.41 170.68V180.23H91.73V170.68H93.41Z" fill="#212121"/>
<path d="M96.88 170.68V180.23H95.2V170.68H96.88Z" fill="#212121"/>
<path d="M101.47 173.72C101.885 173.699 102.299 173.769 102.684 173.924C103.069 174.08 103.416 174.317 103.7 174.62C104.28 175.32 104.573 176.213 104.52 177.12V177.37H100C100.038 177.875 100.267 178.347 100.64 178.69C101.061 179.019 101.587 179.182 102.12 179.15C102.516 179.15 102.909 179.079 103.28 178.94C103.688 178.779 104.074 178.567 104.43 178.31V179.56C103.629 180.103 102.677 180.379 101.71 180.35C101.259 180.369 100.808 180.298 100.384 180.142C99.96 179.986 99.5712 179.747 99.24 179.44C98.91 179.132 98.6501 178.756 98.4776 178.338C98.305 177.921 98.224 177.471 98.24 177.02C98.2234 176.586 98.2935 176.152 98.4463 175.745C98.5992 175.338 98.8316 174.966 99.13 174.65C99.4293 174.335 99.7937 174.088 100.198 173.928C100.602 173.767 101.036 173.696 101.47 173.72V173.72ZM102.94 176.35C102.924 175.95 102.776 175.567 102.52 175.26C102.392 175.125 102.236 175.021 102.064 174.953C101.891 174.886 101.705 174.857 101.52 174.87C101.15 174.86 100.79 174.997 100.52 175.25C100.239 175.552 100.066 175.939 100.03 176.35H102.94Z" fill="#212121"/>
<path d="M109.49 173.72C109.718 173.72 109.944 173.771 110.15 173.87C110.424 174.007 110.68 174.178 110.91 174.38L110.31 175.85C109.981 175.551 109.57 175.36 109.13 175.3C108.848 175.309 108.578 175.411 108.36 175.59C108.102 175.8 107.894 176.063 107.749 176.362C107.604 176.661 107.525 176.988 107.52 177.32V180.23H105.84V173.85H107.52V175.47C107.743 174.974 108.055 174.524 108.44 174.14C108.721 173.867 109.098 173.717 109.49 173.72V173.72Z" fill="#212121"/>
</svg>
