<svg width="170" height="188" viewBox="0 0 170 188" fill="none" xmlns="http://www.w3.org/2000/svg">
<path d="M26.71 130C26.7131 130.502 26.625 131 26.45 131.47C26.2649 131.967 25.9828 132.423 25.62 132.81C25.1854 133.261 24.6511 133.603 24.06 133.81C23.3217 134.085 22.5378 134.218 21.75 134.2H19.08V139.28H15V125.78H21.76C22.5478 125.762 23.3317 125.895 24.07 126.17C24.66 126.379 25.1938 126.721 25.63 127.17C25.998 127.561 26.2807 128.024 26.46 128.53C26.6301 129.001 26.7148 129.499 26.71 130V130ZM22.55 130C22.5811 129.749 22.5446 129.495 22.4444 129.263C22.3442 129.03 22.1839 128.829 21.98 128.68C21.3541 128.394 20.6663 128.27 19.98 128.32H19.12V131.58H20C20.5265 131.595 21.0532 131.552 21.57 131.45C21.8807 131.398 22.1616 131.235 22.36 130.99C22.5093 130.704 22.5752 130.382 22.55 130.06V130Z" fill="#D30119"/>
<path d="M38.06 135.2H31.06C31.1943 135.802 31.5516 136.331 32.06 136.68C32.5845 137.064 33.2198 137.268 33.87 137.26C35.2365 137.212 36.5768 136.871 37.8 136.26V138.44C37.1986 138.736 36.573 138.98 35.93 139.17C35.0155 139.403 34.0735 139.511 33.13 139.49C32.0466 139.525 30.9714 139.291 30 138.81C29.2007 138.406 28.5368 137.776 28.09 137C27.6531 136.186 27.4327 135.274 27.45 134.35C27.4325 133.436 27.653 132.533 28.09 131.73C28.5173 130.924 29.1848 130.27 30 129.86C30.9764 129.395 32.0491 129.169 33.13 129.2C33.9389 129.198 34.738 129.376 35.47 129.72C36.2446 130.091 36.8893 130.687 37.32 131.43C37.8441 132.362 38.0969 133.422 38.05 134.49L38.06 135.2ZM34.76 133.46C34.7872 132.911 34.6209 132.369 34.29 131.93C34.1205 131.736 33.9089 131.584 33.6713 131.486C33.4338 131.387 33.1768 131.344 32.92 131.36C32.6557 131.35 32.3923 131.397 32.1474 131.497C31.9026 131.597 31.6818 131.748 31.5 131.94C31.1286 132.357 30.9348 132.902 30.96 133.46H34.76Z" fill="#D30119"/>
<path d="M50.14 138.82C49.63 139.02 49.14 139.18 48.72 139.31C48.2037 139.44 47.6723 139.5 47.14 139.49C46.7143 139.531 46.2875 139.425 45.93 139.19C45.7084 138.985 45.5431 138.727 45.45 138.44C45.0666 138.747 44.6426 138.999 44.19 139.19C43.6093 139.41 42.9906 139.512 42.37 139.49C41.7647 139.518 41.1622 139.391 40.62 139.12C40.2058 138.898 39.8757 138.547 39.68 138.12C39.5025 137.752 39.4102 137.349 39.41 136.94C39.3872 136.396 39.5494 135.86 39.87 135.42C40.2051 134.996 40.6326 134.654 41.12 134.42C41.7925 134.113 42.4839 133.849 43.19 133.63L44.3 133.28L44.86 133.08C44.9938 133.032 45.1241 132.976 45.25 132.91C45.2678 132.513 45.1668 132.119 44.96 131.78C44.76 131.5 44.34 131.37 43.69 131.37C42.9467 131.361 42.2123 131.532 41.55 131.87C40.8859 132.216 40.2761 132.657 39.74 133.18V130.49C40.1783 130.173 40.6556 129.915 41.16 129.72C41.673 129.518 42.2059 129.37 42.75 129.28C43.3044 129.18 43.8666 129.129 44.43 129.13C45.5743 129.051 46.7137 129.342 47.68 129.96C48.0323 130.228 48.3152 130.577 48.5048 130.977C48.6945 131.378 48.7854 131.817 48.77 132.26V136.1C48.7559 136.377 48.7897 136.654 48.87 136.92C48.8924 137 48.9411 137.07 49.0082 137.119C49.0753 137.168 49.157 137.193 49.24 137.19C49.5576 137.16 49.8648 137.061 50.14 136.9V138.82ZM45.25 136.91V134.56C44.6111 134.801 43.9981 135.106 43.42 135.47C43.2397 135.59 43.0928 135.754 42.9931 135.946C42.8934 136.139 42.8441 136.353 42.85 136.57C42.8424 136.71 42.8643 136.85 42.9142 136.981C42.9642 137.112 43.0411 137.231 43.14 137.33C43.2269 137.416 43.3298 137.484 43.4431 137.531C43.5564 137.577 43.6776 137.601 43.8 137.6C44.0532 137.596 44.3011 137.527 44.52 137.4C44.7731 137.252 45.0169 137.088 45.25 136.91V136.91Z" fill="#D30119"/>
<path d="M59.8 138.86C59.51 138.97 59.2 139.07 58.87 139.17C58.5117 139.269 58.1477 139.346 57.78 139.4C57.3361 139.462 56.8882 139.492 56.44 139.49C55.4902 139.519 54.5463 139.33 53.68 138.94C53.0152 138.62 52.4385 138.143 52 137.55C51.613 137.041 51.3247 136.465 51.15 135.85C51.0053 135.353 50.928 134.838 50.92 134.32C50.9311 133.798 51.0118 133.28 51.16 132.78C51.3255 132.172 51.6074 131.601 51.99 131.1C52.4439 130.516 53.0346 130.052 53.71 129.75C54.5827 129.358 55.5335 129.169 56.49 129.2C57.0941 129.185 57.698 129.239 58.29 129.36C58.7695 129.466 59.2407 129.606 59.7 129.78V132.54C58.8298 132.234 57.9209 132.052 57 132C56.3944 131.993 55.8048 132.194 55.33 132.57C55.08 132.786 54.8845 133.058 54.7594 133.364C54.6343 133.67 54.5831 134.001 54.61 134.33C54.595 134.799 54.7204 135.262 54.97 135.66C55.1956 136.008 55.5144 136.285 55.89 136.46C56.2389 136.619 56.6167 136.704 57 136.71C57.4049 136.705 57.8078 136.651 58.2 136.55C58.65 136.45 59.2 136.3 59.84 136.1L59.8 138.86Z" fill="#D30119"/>
<path d="M71.75 135.2H64.75C64.8879 135.8 65.2444 136.328 65.75 136.68C66.2792 137.063 66.917 137.266 67.57 137.26C68.9333 137.212 70.2703 136.871 71.49 136.26V138.44C70.8893 138.738 70.2636 138.982 69.62 139.17C68.7057 139.404 67.7636 139.512 66.82 139.49C65.7398 139.525 64.6678 139.291 63.7 138.81C62.8943 138.407 62.2236 137.778 61.77 137C61.3331 136.186 61.1127 135.274 61.13 134.35C61.1125 133.436 61.333 132.533 61.77 131.73C62.2118 130.94 62.8855 130.305 63.7 129.91C64.6727 129.445 65.7423 129.219 66.82 129.25C67.6288 129.248 68.428 129.426 69.16 129.77C69.9213 130.133 70.5606 130.71 71 131.43C71.5196 132.364 71.7722 133.422 71.73 134.49L71.75 135.2ZM68.45 133.46C68.4787 132.909 68.3084 132.366 67.97 131.93C67.8025 131.737 67.5927 131.585 67.3568 131.486C67.1208 131.387 66.8653 131.344 66.61 131.36C66.3454 131.348 66.0815 131.394 65.8363 131.494C65.5911 131.594 65.3706 131.746 65.19 131.94C64.8186 132.357 64.6248 132.902 64.65 133.46H68.45Z" fill="#D30119"/>
<path d="M90.47 134.34C90.4857 135.261 90.2617 136.171 89.82 136.98C89.3775 137.771 88.709 138.412 87.9 138.82C86.9156 139.261 85.8489 139.49 84.77 139.49C83.6911 139.49 82.6244 139.261 81.64 138.82C80.8291 138.42 80.1568 137.786 79.71 137C79.2718 136.19 79.0513 135.281 79.07 134.36C79.0654 133.677 79.1875 132.999 79.43 132.36C79.6679 131.745 80.0364 131.189 80.51 130.73C81.0211 130.242 81.6317 129.87 82.3 129.64C83.0959 129.374 83.9311 129.246 84.77 129.26C85.613 129.246 86.4521 129.378 87.25 129.65C87.899 129.857 88.4959 130.202 89 130.66C89.4674 131.122 89.832 131.677 90.07 132.29C90.3312 132.942 90.4669 133.638 90.47 134.34V134.34ZM86.77 134.34C86.8112 133.682 86.6278 133.03 86.25 132.49C86.0623 132.277 85.8315 132.107 85.5729 131.99C85.3143 131.873 85.0338 131.813 84.75 131.813C84.4663 131.813 84.1858 131.873 83.9271 131.99C83.6685 132.107 83.4377 132.277 83.25 132.49C82.8722 133.03 82.6889 133.682 82.73 134.34C82.6958 134.997 82.8785 135.647 83.25 136.19C83.432 136.412 83.6609 136.591 83.9203 136.713C84.1797 136.836 84.4631 136.9 84.75 136.9C85.037 136.9 85.3203 136.836 85.5797 136.713C85.8391 136.591 86.068 136.412 86.25 136.19C86.6215 135.647 86.8042 134.997 86.77 134.34Z" fill="#D30119"/>
<path d="M99 128.3C98.5776 128.194 98.1452 128.134 97.71 128.12C97.5433 128.11 97.3765 128.138 97.2223 128.202C97.0681 128.266 96.9305 128.365 96.82 128.49C96.6017 128.777 96.4887 129.13 96.5 129.49V129.84H98.28V132.23H96.49V139.23H93V132.23H91.35V129.84H93V129.67C92.9915 128.983 93.1278 128.301 93.4 127.67C93.6901 127.033 94.1636 126.497 94.76 126.13C95.5193 125.696 96.3866 125.488 97.26 125.53C97.8512 125.531 98.4408 125.591 99.02 125.71L99 128.3Z" fill="#D30119"/>
<path d="M124 139.32H120.48V134C120.52 133.454 120.398 132.908 120.13 132.43C120.011 132.254 119.848 132.112 119.656 132.019C119.465 131.926 119.252 131.885 119.04 131.9C118.593 131.884 118.158 132.046 117.83 132.35C117.481 132.69 117.17 133.065 116.9 133.47V139.31H113.38V134C113.407 133.465 113.297 132.931 113.06 132.45C112.938 132.264 112.767 132.114 112.566 132.017C112.365 131.92 112.142 131.88 111.92 131.9C111.671 131.901 111.426 131.956 111.2 132.06C111.006 132.148 110.827 132.266 110.67 132.41C110.486 132.587 110.318 132.782 110.17 132.99L109.8 133.47V139.31H106.28V129.37H109.8V130.79C110.251 130.281 110.798 129.867 111.41 129.57C112.005 129.309 112.65 129.179 113.3 129.19C113.636 129.187 113.97 129.217 114.3 129.28C114.614 129.343 114.917 129.451 115.2 129.6C115.507 129.753 115.783 129.963 116.01 130.22C116.252 130.484 116.445 130.788 116.58 131.12C117.081 130.54 117.68 130.053 118.35 129.68C118.998 129.343 119.72 129.174 120.45 129.19C121.148 129.166 121.839 129.332 122.45 129.67C122.986 129.989 123.403 130.473 123.64 131.05C123.918 131.746 124.051 132.491 124.03 133.24L124 139.32Z" fill="#D30119"/>
<path d="M129.86 139.32H126.33V129.38H129.86V139.32ZM129.57 127.08C129.567 127.268 129.527 127.453 129.452 127.625C129.376 127.796 129.267 127.951 129.13 128.08C128.865 128.347 128.506 128.501 128.13 128.51C127.935 128.513 127.742 128.476 127.562 128.403C127.382 128.329 127.218 128.22 127.081 128.082C126.944 127.944 126.836 127.78 126.763 127.599C126.691 127.418 126.656 127.225 126.66 127.03C126.665 126.655 126.816 126.296 127.08 126.03C127.286 125.829 127.545 125.692 127.827 125.635C128.109 125.578 128.402 125.604 128.669 125.71C128.937 125.816 129.168 125.997 129.335 126.231C129.502 126.465 129.597 126.743 129.61 127.03L129.57 127.08Z" fill="#D30119"/>
<path d="M142.93 139.32H139.42V134C139.431 133.506 139.339 133.016 139.15 132.56C139.039 132.35 138.867 132.178 138.656 132.069C138.445 131.96 138.205 131.919 137.97 131.95C137.71 131.946 137.453 132.004 137.22 132.12C137 132.22 136.8 132.359 136.63 132.53C136.472 132.68 136.329 132.844 136.2 133.02L135.83 133.52V139.36H132.32V129.42H135.83V130.84C136.294 130.314 136.863 129.892 137.5 129.6C138.089 129.354 138.722 129.232 139.36 129.24C141.74 129.24 142.93 130.667 142.93 133.52V139.32Z" fill="#D30119"/>
<path d="M155.6 139.32H152.08V138.42C151.718 138.721 151.322 138.98 150.9 139.19C150.359 139.414 149.775 139.516 149.19 139.49C148.448 139.485 147.718 139.304 147.06 138.96C146.337 138.577 145.74 137.994 145.34 137.28C144.858 136.402 144.623 135.411 144.66 134.41C144.654 133.537 144.828 132.673 145.17 131.87C145.505 131.088 146.056 130.418 146.76 129.94C147.551 129.43 148.479 129.172 149.42 129.2C149.955 129.184 150.488 129.254 151 129.41C151.382 129.547 151.745 129.731 152.08 129.96V125.78H155.6V139.32ZM152.08 136.15V132.35C151.757 132.17 151.423 132.01 151.08 131.87C150.823 131.764 150.547 131.713 150.27 131.72C150 131.716 149.734 131.777 149.493 131.899C149.253 132.021 149.046 132.2 148.89 132.42C148.493 132.978 148.299 133.656 148.34 134.34C148.279 135.031 148.486 135.719 148.92 136.26C149.09 136.45 149.298 136.601 149.531 136.705C149.763 136.808 150.015 136.861 150.27 136.86C150.614 136.87 150.956 136.801 151.27 136.66C151.556 136.516 151.827 136.346 152.08 136.15Z" fill="#D30119"/>
<path d="M25 152.68V156.68H30V152.68H31.84V162.23H30V158.23H25V162.23H23.16V152.68H25Z" fill="#212121"/>
<path d="M36.56 155.72C36.9746 155.7 37.3888 155.77 37.7738 155.925C38.1588 156.081 38.5055 156.318 38.79 156.62C39.3698 157.32 39.6629 158.213 39.61 159.12V159.37H35.09C35.1284 159.875 35.3571 160.347 35.73 160.69C36.1507 161.019 36.6771 161.182 37.21 161.15C37.6061 161.15 37.999 161.079 38.37 160.94C38.7779 160.779 39.1642 160.567 39.52 160.31V161.56C38.719 162.103 37.7672 162.379 36.8 162.35C36.3486 162.369 35.8979 162.298 35.4739 162.142C35.05 161.986 34.6612 161.747 34.33 161.44C34 161.132 33.74 160.756 33.5675 160.338C33.395 159.921 33.314 159.471 33.33 159.02C33.3133 158.586 33.3835 158.152 33.5363 157.745C33.6891 157.338 33.9215 156.966 34.22 156.65C34.5193 156.335 34.8836 156.088 35.2877 155.928C35.6917 155.767 36.1258 155.696 36.56 155.72V155.72ZM38 158.35C37.9835 157.95 37.8359 157.567 37.58 157.26C37.4523 157.125 37.2964 157.021 37.1236 156.953C36.9507 156.886 36.7651 156.857 36.58 156.87C36.2097 156.86 35.8504 156.997 35.58 157.25C35.2985 157.552 35.1261 157.939 35.09 158.35H38Z" fill="#212121"/>
<path d="M44.58 155.72C44.8085 155.72 45.0341 155.771 45.24 155.87C45.5141 156.007 45.7695 156.178 46 156.38L45.4 157.85C45.0715 157.551 44.66 157.36 44.22 157.3C43.9384 157.309 43.6677 157.411 43.45 157.59C43.1894 157.796 42.9806 158.059 42.84 158.36C42.6873 158.671 42.6086 159.013 42.61 159.36V162.27H40.93V155.89H42.61V157.51C42.8332 157.014 43.145 156.564 43.53 156.18C43.666 156.038 43.8288 155.924 44.009 155.845C44.1892 155.766 44.3833 155.724 44.58 155.72V155.72Z" fill="#212121"/>
<path d="M49.3599 155.72C49.7746 155.7 50.1888 155.77 50.5738 155.925C50.9588 156.081 51.3055 156.318 51.5899 156.62C52.1698 157.32 52.4628 158.213 52.4099 159.12V159.37H47.8899C47.9284 159.875 48.1571 160.347 48.5299 160.69C48.9476 161.017 49.4703 161.181 49.9999 161.15C50.3962 161.151 50.7893 161.08 51.1599 160.94C51.5689 160.781 51.9555 160.569 52.3099 160.31V161.56C51.5104 162.106 50.5576 162.383 49.5899 162.35C48.6785 162.386 47.7901 162.059 47.1199 161.44C46.8006 161.126 46.5509 160.748 46.3872 160.331C46.2236 159.914 46.1495 159.467 46.1699 159.02C46.1514 158.586 46.2197 158.153 46.3709 157.746C46.522 157.339 46.7529 156.967 47.0499 156.65C47.3459 156.339 47.7054 156.094 48.1039 155.934C48.5024 155.774 48.9308 155.701 49.3599 155.72V155.72ZM50.8299 158.35C50.8015 157.953 50.6553 157.573 50.4099 157.26C50.2818 157.126 50.1259 157.022 49.9532 156.954C49.7804 156.887 49.595 156.858 49.4099 156.87C49.2264 156.864 49.0433 156.894 48.8716 156.959C48.6999 157.024 48.5429 157.123 48.4099 157.25C48.1285 157.552 47.956 157.939 47.9199 158.35H50.8299Z" fill="#212121"/>
<path d="M60.3 152.56C60.5042 152.562 60.7081 152.579 60.91 152.61C61.0821 152.639 61.2501 152.69 61.41 152.76V154.12C61.1615 154.058 60.9061 154.027 60.65 154.03C60.4867 154.017 60.3225 154.038 60.1676 154.091C60.0128 154.144 59.8706 154.229 59.75 154.34C59.5335 154.627 59.427 154.982 59.45 155.34V155.8H60.54V157.07H59.45V162.18H57.77V157.07H56.86V155.8H57.77V155.32C57.7291 154.574 57.976 153.84 58.46 153.27C58.6973 153.026 58.9847 152.836 59.3023 152.714C59.6199 152.591 59.9602 152.539 60.3 152.56V152.56Z" fill="#212121"/>
<path d="M64.6 155.72C65.2316 155.712 65.8559 155.856 66.42 156.14C66.9414 156.4 67.3758 156.807 67.67 157.31C67.9733 157.825 68.129 158.413 68.12 159.01C68.1348 159.618 67.9863 160.219 67.69 160.75C67.3969 161.258 66.9579 161.665 66.43 161.92C65.8647 162.212 65.2361 162.36 64.6 162.35C63.967 162.36 63.3416 162.212 62.78 161.92C62.2585 161.66 61.8241 161.253 61.53 160.75C61.2368 160.214 61.0886 159.611 61.1 159C61.0877 158.398 61.2473 157.805 61.56 157.29C61.8556 156.791 62.2899 156.388 62.81 156.13C63.3647 155.851 63.9789 155.71 64.6 155.72ZM62.87 159C62.8375 159.55 63.0044 160.093 63.34 160.53C63.4895 160.716 63.6803 160.864 63.8974 160.963C64.1144 161.062 64.3516 161.109 64.59 161.1C64.8327 161.113 65.0752 161.07 65.2989 160.975C65.5225 160.88 65.7213 160.734 65.88 160.55C66.2243 160.106 66.3917 159.55 66.35 158.99C66.3892 158.448 66.2212 157.912 65.88 157.49C65.7175 157.312 65.5176 157.172 65.2945 157.08C65.0714 156.988 64.8308 156.947 64.59 156.96C64.3541 156.951 64.1194 156.997 63.9043 157.095C63.6892 157.192 63.4994 157.337 63.35 157.52C63.015 157.938 62.8443 158.465 62.87 159V159Z" fill="#212121"/>
<path d="M73.12 155.72C73.3451 155.721 73.5672 155.772 73.77 155.87C74.0441 156.007 74.2995 156.178 74.53 156.38L73.93 157.85C73.6015 157.551 73.19 157.36 72.75 157.3C72.4687 157.311 72.1985 157.413 71.98 157.59C71.7262 157.803 71.5209 158.067 71.3777 158.365C71.2346 158.664 71.1569 158.989 71.15 159.32V162.23H69.46V155.85H71.15V157.47C71.3762 156.974 71.6914 156.523 72.08 156.14C72.3587 155.87 72.7318 155.719 73.12 155.72V155.72Z" fill="#212121"/>
<path d="M80.2 155.85L81.71 159.28L83.24 155.85H85L80.59 165.45H78.79L80.79 161.05L78.31 155.85H80.2Z" fill="#212121"/>
<path d="M89.06 155.72C89.6885 155.711 90.3098 155.855 90.87 156.14C91.3951 156.399 91.8331 156.805 92.13 157.31C92.4333 157.825 92.589 158.413 92.58 159.01C92.5896 159.617 92.4415 160.217 92.15 160.75C91.8569 161.258 91.4179 161.665 90.89 161.92C90.3247 162.212 89.6961 162.36 89.06 162.35C88.4269 162.361 87.8012 162.213 87.24 161.92C86.7222 161.658 86.2914 161.252 86 160.75C85.7085 160.217 85.5603 159.617 85.57 159.01C85.5535 158.411 85.7023 157.82 86 157.3C86.3014 156.802 86.7384 156.399 87.26 156.14C87.8168 155.856 88.4347 155.711 89.06 155.72V155.72ZM87.33 159C87.2975 159.55 87.4644 160.093 87.8 160.53C87.9495 160.716 88.1404 160.864 88.3574 160.963C88.5744 161.062 88.8116 161.109 89.05 161.1C89.2927 161.113 89.5352 161.07 89.7589 160.975C89.9825 160.88 90.1813 160.734 90.34 160.55C90.6843 160.106 90.8517 159.55 90.81 158.99C90.8492 158.449 90.6812 157.912 90.34 157.49C90.1775 157.312 89.9776 157.172 89.7545 157.08C89.5314 156.988 89.2908 156.947 89.05 156.96C88.814 156.951 88.579 156.996 88.3638 157.094C88.1486 157.191 87.9589 157.337 87.81 157.52C87.475 157.938 87.3043 158.465 87.33 159V159Z" fill="#212121"/>
<path d="M95.54 155.85V159.85C95.5185 160.192 95.6296 160.528 95.85 160.79C95.9576 160.9 96.087 160.986 96.23 161.043C96.373 161.1 96.5263 161.126 96.68 161.12C96.9697 161.115 97.2515 161.025 97.49 160.86C97.7599 160.676 97.977 160.424 98.12 160.13V155.9H99.8V162.28H98.12V161.41C97.8792 161.712 97.5755 161.958 97.2302 162.13C96.8848 162.303 96.506 162.399 96.12 162.41C95.8131 162.423 95.507 162.369 95.2224 162.254C94.9377 162.138 94.6812 161.963 94.47 161.74C94.0372 161.263 93.8107 160.634 93.84 159.99V155.91L95.54 155.85Z" fill="#212121"/>
<path d="M102.33 160.36C102.496 160.354 102.662 160.387 102.813 160.456C102.964 160.526 103.097 160.63 103.2 160.76C103.436 161.069 103.553 161.452 103.53 161.84C103.535 162.426 103.321 162.993 102.93 163.43C102.552 163.882 102.022 164.181 101.44 164.27V163.91C101.653 163.737 101.823 163.517 101.938 163.267C102.052 163.017 102.108 162.745 102.1 162.47V162.26C101.987 162.25 101.877 162.218 101.776 162.165C101.676 162.112 101.587 162.04 101.514 161.953C101.442 161.865 101.387 161.764 101.354 161.656C101.32 161.547 101.309 161.433 101.32 161.32C101.318 161.193 101.343 161.066 101.393 160.949C101.443 160.832 101.517 160.727 101.61 160.64C101.705 160.548 101.818 160.476 101.942 160.428C102.065 160.38 102.197 160.357 102.33 160.36V160.36Z" fill="#212121"/>
<path d="M111.12 155.72C111.789 155.677 112.452 155.864 113 156.25C113.215 156.423 113.386 156.645 113.499 156.897C113.612 157.149 113.664 157.424 113.65 157.7V160.83C113.65 161.07 113.74 161.19 113.94 161.19C114.059 161.182 114.175 161.148 114.28 161.09C114.416 161.022 114.544 160.938 114.66 160.84V161.84C114.18 162.165 113.619 162.352 113.04 162.38C112.801 162.394 112.562 162.342 112.35 162.23C112.174 162.102 112.053 161.913 112.01 161.7C111.455 162.126 110.779 162.364 110.08 162.38C109.638 162.389 109.211 162.224 108.89 161.92C108.733 161.779 108.608 161.607 108.523 161.413C108.438 161.22 108.397 161.011 108.4 160.8C108.387 160.561 108.423 160.322 108.508 160.098C108.592 159.874 108.722 159.671 108.89 159.5C109.391 159.092 109.98 158.804 110.61 158.66L111.97 158.27V157.97C111.97 157.35 111.59 157.04 110.84 157.04C110.439 157.044 110.044 157.132 109.68 157.3C109.282 157.492 108.925 157.76 108.63 158.09V156.58C109.335 156.014 110.215 155.71 111.12 155.72V155.72ZM110.12 160.52C110.115 160.624 110.132 160.727 110.17 160.824C110.208 160.92 110.266 161.008 110.34 161.08C110.488 161.22 110.686 161.296 110.89 161.29C111.309 161.267 111.705 161.089 112 160.79V159.11C111.622 159.231 111.254 159.381 110.9 159.56C110.677 159.662 110.476 159.809 110.31 159.99C110.169 160.131 110.09 160.321 110.09 160.52H110.12Z" fill="#212121"/>
<path d="M117.32 152.68V162.23H115.63V152.68H117.32Z" fill="#212121"/>
<path d="M120 155.85L121.49 159.53L123 155.85H124.09L125.59 159.53L127.07 155.85H128.82L125.98 162.35H125.27L123.54 158.45L121.82 162.35H121.12L118.25 155.85H120Z" fill="#212121"/>
<path d="M131.92 155.72C132.589 155.676 133.253 155.863 133.8 156.25C134.015 156.423 134.186 156.645 134.299 156.897C134.412 157.149 134.464 157.424 134.45 157.7V160.83C134.45 161.07 134.54 161.19 134.74 161.19C134.862 161.181 134.981 161.147 135.09 161.09C135.222 161.02 135.346 160.936 135.46 160.84V161.84C134.982 162.163 134.426 162.35 133.85 162.38C133.607 162.395 133.365 162.344 133.15 162.23C132.974 162.102 132.853 161.913 132.81 161.7C132.256 162.127 131.579 162.366 130.88 162.38C130.438 162.389 130.011 162.224 129.69 161.92C129.533 161.779 129.408 161.607 129.323 161.413C129.238 161.22 129.196 161.011 129.2 160.8C129.187 160.561 129.223 160.322 129.308 160.098C129.392 159.875 129.522 159.671 129.69 159.5C130.191 159.092 130.78 158.804 131.41 158.66L132.77 158.27V157.97C132.77 157.35 132.39 157.04 131.64 157.04C131.239 157.045 130.844 157.133 130.48 157.3C130.097 157.494 129.758 157.763 129.48 158.09V156.58C130.171 156.022 131.032 155.718 131.92 155.72V155.72ZM130.92 160.52C130.917 160.623 130.935 160.726 130.973 160.822C131.011 160.919 131.068 161.006 131.14 161.08C131.289 161.218 131.486 161.294 131.69 161.29C132.109 161.267 132.505 161.089 132.8 160.79V159.11C132.422 159.231 132.054 159.382 131.7 159.56C131.479 159.666 131.279 159.812 131.11 159.99C130.969 160.131 130.89 160.321 130.89 160.52H130.92Z" fill="#212121"/>
<path d="M137.37 155.85L138.88 159.28L140.41 155.85H142.22L137.81 165.45H136L138 161.05L135.51 155.85H137.37Z" fill="#212121"/>
<path d="M145.15 155.72C145.487 155.718 145.823 155.758 146.15 155.84C146.495 155.933 146.83 156.06 147.15 156.22V157.57C146.837 157.365 146.502 157.197 146.15 157.07C145.829 156.954 145.491 156.89 145.15 156.88C144.95 156.869 144.752 156.917 144.58 157.02C144.515 157.061 144.462 157.119 144.427 157.188C144.391 157.256 144.375 157.333 144.38 157.41C144.384 157.468 144.402 157.525 144.431 157.575C144.461 157.625 144.501 157.668 144.55 157.7C144.845 157.9 145.156 158.074 145.48 158.22C146.044 158.468 146.564 158.806 147.02 159.22C147.309 159.521 147.467 159.923 147.46 160.34C147.472 160.615 147.42 160.888 147.309 161.14C147.198 161.391 147.031 161.614 146.82 161.79C146.322 162.169 145.705 162.357 145.08 162.32C144.649 162.323 144.219 162.273 143.8 162.17C143.453 162.091 143.118 161.97 142.8 161.81V160.41C143.426 160.807 144.141 161.041 144.88 161.09C145.119 161.099 145.356 161.048 145.57 160.94C145.649 160.904 145.716 160.847 145.764 160.774C145.812 160.701 145.838 160.617 145.84 160.53C145.842 160.431 145.807 160.334 145.74 160.26C145.661 160.162 145.566 160.078 145.46 160.01C145.333 159.917 144.933 159.707 144.26 159.38C143.827 159.197 143.439 158.925 143.12 158.58C142.88 158.302 142.749 157.947 142.75 157.58C142.742 157.318 142.798 157.059 142.913 156.823C143.028 156.588 143.198 156.384 143.41 156.23C143.917 155.872 144.529 155.692 145.15 155.72V155.72Z" fill="#212121"/>
<path d="M118.2 78.19C118.2 83.0103 116.882 87.7388 114.389 91.8642C111.896 95.9896 108.322 99.355 104.055 101.596C99.7872 103.838 94.9882 104.87 90.1766 104.581C85.365 104.293 80.7238 102.694 76.755 99.9586C72.7861 97.223 69.6406 93.4545 67.6586 89.0606C65.6766 84.6667 64.9334 79.8145 65.5095 75.0288C66.0856 70.2431 67.9591 65.7059 70.9272 61.9079C73.8954 58.1099 77.8454 55.1956 82.35 53.48C83.15 53.19 84.8 59.02 85.59 58.8C86.38 58.58 86.49 52.27 87.36 52.12C88.8147 51.8839 90.2863 51.7669 91.76 51.77C97.09 51.77 99.55 57.77 103.71 60.5C110.92 65.22 118.2 68.92 118.2 78.19Z" fill="#D30119"/>
<path d="M91.76 99.08C85.2302 99.0784 78.9324 96.6588 74.0813 92.2878C69.2302 87.9169 66.1697 81.9043 65.49 75.41C64.7487 82.3839 66.8082 89.3666 71.2153 94.822C75.6224 100.277 82.0161 103.759 88.99 104.5C95.9639 105.241 102.947 103.182 108.402 98.7748C113.857 94.3677 117.339 87.9739 118.08 81C118.17 80.07 118.22 79.13 118.22 78.19C118.217 77.3698 118.153 76.5509 118.03 75.74C117.275 82.1747 114.181 88.1076 109.338 92.4108C104.495 96.7139 98.2389 99.0874 91.76 99.08V99.08Z" fill="white"/>
<path d="M91.76 106C85.2519 106.007 78.9473 103.732 73.944 99.5698C68.9407 95.4077 65.5555 89.6228 64.3779 83.2221C63.2003 76.8214 64.3049 70.2104 67.4992 64.5401C70.6936 58.8699 75.7754 54.4995 81.86 52.19C82.5 51.95 83.43 51.99 84.31 53.55C84.6108 54.0999 84.878 54.6677 85.11 55.25C85.49 52.6 85.74 51.01 87.11 50.76C88.6405 50.5086 90.1889 50.3815 91.74 50.38C95.74 50.38 98.36 53.26 100.67 55.8C101.775 57.1307 103.038 58.3227 104.43 59.35L106.43 60.57C112.89 64.7 119.55 68.98 119.55 78.14C119.561 85.5114 116.645 92.5857 111.444 97.8093C106.243 103.033 99.1814 105.979 91.81 106H91.76ZM82 55.16C77.8573 56.9444 74.2745 59.8164 71.6315 63.4716C68.9884 67.1268 67.3835 71.4289 66.9869 75.9221C66.5902 80.4153 67.4166 84.9321 69.3784 88.9938C71.3402 93.0555 74.3644 96.5107 78.1304 98.9933C81.8964 101.476 86.2639 102.893 90.77 103.095C95.2762 103.298 99.753 102.277 103.726 100.141C107.699 98.0056 111.021 94.8349 113.338 90.9651C115.656 87.0954 116.883 82.6707 116.89 78.16C116.89 70.51 111.39 66.99 105.04 62.92L103.04 61.63C101.441 60.4825 99.9934 59.1387 98.73 57.63C96.56 55.18 94.73 53.14 91.87 53.14C90.6826 53.1483 89.4968 53.2318 88.32 53.39C88.18 53.98 88.04 55.01 87.94 55.68C87.57 58.23 87.35 59.77 86.05 60.13C84.75 60.49 83.97 59.13 83.72 58.68C83.47 58.23 83.1 57.37 82.78 56.68C82.61 56.24 82.28 55.61 82.06 55.14L82 55.16Z" fill="black"/>
<path d="M74.42 21.18L86.54 66.36L71.06 69.78L60.21 24.6C59.7666 22.7176 60.0841 20.7363 61.0933 19.0866C62.1026 17.4369 63.7221 16.2523 65.6 15.79C67.4837 15.3464 69.4663 15.6635 71.1175 16.6726C72.7688 17.6817 73.9555 19.3014 74.42 21.18Z" fill="#D30119"/>
<path d="M70 71.41L58.86 24.92C58.5636 23.8013 58.4936 22.6347 58.6542 21.4887C58.8147 20.3426 59.2026 19.2401 59.795 18.246C60.3874 17.2518 61.1724 16.386 62.1039 15.6994C63.0354 15.0127 64.0947 14.519 65.2196 14.2473C66.3445 13.9756 67.5124 13.9312 68.6547 14.117C69.7969 14.3027 70.8906 14.7147 71.8715 15.3288C72.8523 15.9429 73.7007 16.7467 74.3667 17.6931C75.0327 18.6395 75.503 19.7094 75.75 20.84L88.26 67.39L70 71.41ZM67.31 17C66.5365 16.9934 65.7693 17.1392 65.0521 17.4291C64.335 17.7191 63.682 18.1474 63.1304 18.6897C62.5788 19.232 62.1395 19.8776 61.8374 20.5897C61.5353 21.3019 61.3765 22.0665 61.37 22.84C61.37 23.3487 61.4305 23.8555 61.55 24.35L72.09 68.17L84.84 65.37L73.07 21.51C72.7524 20.2224 72.0124 19.0785 70.9683 18.2609C69.9242 17.4434 68.6361 16.9994 67.31 17V17Z" fill="black"/>
<path d="M95.57 15L83.44 60.17L98.93 63.59L109.78 18.41C110.221 16.5278 109.902 14.5477 108.893 12.8987C107.884 11.2498 106.266 10.0646 104.39 9.6C102.507 9.16238 100.527 9.48351 98.878 10.494C97.2294 11.5044 96.0448 13.1231 95.58 15H95.57Z" fill="#D30119"/>
<path d="M100 65.23L81.76 61.23L94.24 14.66C94.8218 12.4641 96.2404 10.5833 98.1918 9.4205C100.143 8.25766 102.473 7.9052 104.681 8.4386C106.889 8.97201 108.8 10.3489 110.006 12.2743C111.211 14.1997 111.615 16.5207 111.13 18.74L100 65.23ZM85.16 59.11L97.91 61.94L108.45 18.09C108.859 16.5886 108.661 14.9868 107.899 13.6301C107.137 12.2733 105.873 11.2702 104.378 10.8372C102.884 10.4042 101.279 10.576 99.9099 11.3154C98.5409 12.0549 97.5173 13.3028 97.06 14.79C97.06 14.97 96.97 15.14 96.93 15.31V15.39L85.16 59.11Z" fill="black"/>
<path d="M92.2 69.14L104.45 51.24C105.57 49.6211 107.286 48.512 109.222 48.1559C111.159 47.7998 113.157 48.2256 114.78 49.34L115.1 49.56C116.719 50.6802 117.828 52.3963 118.184 54.3325C118.54 56.2687 118.114 58.2671 117 59.89L104.77 77.78C103.626 79.4489 101.867 80.5963 99.878 80.9712C97.8895 81.346 95.8335 80.9177 94.16 79.78C92.4918 78.6374 91.3446 76.8802 90.9697 74.8933C90.5948 72.9064 91.0229 70.8519 92.16 69.18L92.2 69.14Z" fill="#D30119"/>
<path d="M98.48 82.47C96.8431 82.4611 95.2396 82.006 93.842 81.1536C92.4445 80.3012 91.306 79.0838 90.5489 77.6324C89.7918 76.1811 89.445 74.5507 89.5456 72.9168C89.6462 71.283 90.1906 69.7075 91.12 68.36L103.38 50.47C104.032 49.5168 104.865 48.7016 105.833 48.0711C106.8 47.4405 107.882 47.0068 109.017 46.7951C110.152 46.5833 111.318 46.5975 112.447 46.8368C113.577 47.0762 114.648 47.536 115.6 48.19L115.94 48.42C116.894 49.0736 117.709 49.9088 118.34 50.8779C118.971 51.8469 119.405 52.9308 119.617 54.0675C119.828 55.2042 119.814 56.3715 119.574 57.5027C119.335 58.6339 118.875 59.7067 118.22 60.66L106 78.56C105.336 79.5415 104.483 80.3806 103.49 81.028C102.498 81.6754 101.386 82.118 100.22 82.33C99.6465 82.4375 99.0633 82.4845 98.48 82.47V82.47ZM110.63 49.39C109.648 49.3949 108.681 49.6354 107.811 50.0913C106.941 50.5472 106.193 51.2052 105.63 52.01L93.38 69.9C92.4385 71.2645 92.0776 72.9472 92.3767 74.5778C92.6758 76.2084 93.6105 77.6535 94.975 78.595C96.3396 79.5365 98.0222 79.8974 99.6529 79.5983C101.283 79.2991 102.728 78.3645 103.67 77L115.92 59.11C116.373 58.4609 116.694 57.7286 116.863 56.9552C117.032 56.1817 117.046 55.3825 116.905 54.6035C116.763 53.8245 116.469 53.0812 116.039 52.4164C115.61 51.7516 115.052 51.1785 114.4 50.73L114.07 50.51C113.067 49.8187 111.878 49.449 110.66 49.45L110.63 49.39Z" fill="black"/>
<path d="M127.72 69.41L113.55 86.12C112.488 87.3269 110.994 88.0675 109.39 88.1816C107.786 88.2958 106.202 87.7743 104.98 86.73C103.772 85.668 103.032 84.1726 102.92 82.5682C102.807 80.9639 103.332 79.3799 104.38 78.16L118.49 61.4C119.554 60.1924 121.05 59.4516 122.655 59.3375C124.26 59.2233 125.846 59.7451 127.07 60.79C128.295 61.8494 129.051 63.3508 129.173 64.9659C129.295 66.5811 128.772 68.1788 127.72 69.41Z" fill="#D30119"/>
<path d="M108.94 89.61C107.504 89.6063 106.099 89.1904 104.893 88.4118C103.686 87.6332 102.728 86.5246 102.133 85.2177C101.538 83.9108 101.331 82.4605 101.536 81.0392C101.741 79.618 102.35 78.2854 103.29 77.2L117.43 60.49C118.059 59.7303 118.832 59.1019 119.703 58.6408C120.575 58.1796 121.529 57.8947 122.511 57.8023C123.493 57.7099 124.484 57.8118 125.427 58.1023C126.369 58.3927 127.245 58.8659 128.005 59.495C128.765 60.124 129.393 60.8965 129.854 61.7684C130.315 62.6403 130.6 63.5944 130.693 64.5764C130.785 65.5584 130.683 66.5489 130.393 67.4915C130.102 68.4341 129.629 69.3103 129 70.07L128.91 70.18C128.871 70.2148 128.837 70.2553 128.81 70.3L114.61 87C113.908 87.8166 113.038 88.4725 112.059 88.9228C111.081 89.3732 110.017 89.6076 108.94 89.61ZM123.11 60.71H122.77C122.15 60.7539 121.545 60.9195 120.989 61.1975C120.433 61.4755 119.937 61.8603 119.53 62.33L105.38 79C104.629 79.9543 104.274 81.1608 104.388 82.3698C104.502 83.5788 105.077 84.6976 105.993 85.4944C106.91 86.2913 108.097 86.7051 109.311 86.6503C110.524 86.5955 111.669 86.0762 112.51 85.2L126.65 68.5C127.471 67.556 127.885 66.3252 127.8 65.077C127.716 63.8289 127.141 62.6649 126.2 61.84C125.335 61.111 124.241 60.7108 123.11 60.71V60.71Z" fill="black"/>
<path d="M80.3 78.08C80.3 78.08 102.84 66.84 104.16 56.08C105.48 45.32 97 40.19 94.36 44.3C92.06 47.97 80.12 62.5 68.36 64.89C68.36 64.89 62.36 66.35 65.36 79.18" fill="#D30119"/>
<path d="M65.4 80.59C65.087 80.5912 64.7828 80.4859 64.5375 80.2915C64.2922 80.0971 64.1203 79.825 64.05 79.52C60.79 65.52 67.8 63.59 68.05 63.59H68.12C78.84 61.36 90.41 47.95 93.19 43.59C93.7837 42.6732 94.683 41.9964 95.7283 41.6797C96.7736 41.363 97.8973 41.4269 98.9 41.86C102.9 43.29 106.42 48.68 105.5 56.22C104.13 67.6 81.85 78.84 80.91 79.31C80.6137 79.5166 80.2487 79.5998 79.8922 79.5419C79.5357 79.484 79.2157 79.2897 79 79C78.8826 78.8504 78.7974 78.6781 78.7497 78.494C78.702 78.3099 78.6929 78.1179 78.723 77.9301C78.753 77.7423 78.8216 77.5627 78.9243 77.4027C79.027 77.2426 79.1618 77.1055 79.32 77C79.4303 76.9223 79.5517 76.8617 79.68 76.82C83.6133 74.8234 87.3965 72.5441 91 70C98.26 64.8 102.35 59.94 102.84 55.92C103.57 49.92 100.93 45.53 98.06 44.5C97.6489 44.283 97.1725 44.2242 96.7211 44.3348C96.2696 44.4454 95.8743 44.7176 95.61 45.1C93.67 48 81.45 63.63 68.7 66.24C67.8583 66.6218 67.1884 67.3024 66.82 68.15C65.99 69.75 65.3 72.91 66.69 78.89C66.7719 79.2411 66.7131 79.6104 66.5262 79.9188C66.3394 80.2272 66.0392 80.4501 65.69 80.54C65.5843 80.56 65.4757 80.56 65.37 80.54L65.4 80.59Z" fill="black"/>
<path d="M58.05 51.17C57.8668 51.1806 57.6834 51.1532 57.5113 51.0896C57.3392 51.0259 57.1822 50.9273 57.05 50.8C52.7492 46.6582 49.6193 41.4535 47.9773 35.7128C46.3354 29.9721 46.2397 23.8995 47.7 18.11C47.7407 17.932 47.8161 17.7639 47.9218 17.615C48.0275 17.4662 48.1615 17.3397 48.3161 17.2426C48.4707 17.1456 48.6429 17.08 48.8229 17.0495C49.0029 17.019 49.1871 17.0243 49.365 17.065C49.543 17.1057 49.7112 17.181 49.86 17.2868C50.0088 17.3925 50.1353 17.5264 50.2324 17.6811C50.3294 17.8357 50.395 18.0079 50.4255 18.1878C50.456 18.3678 50.4507 18.552 50.41 18.73C49.0774 24.0499 49.1766 29.6277 50.6976 34.8969C52.2186 40.166 55.1073 44.9387 59.07 48.73C59.2019 48.861 59.3065 49.0168 59.3779 49.1884C59.4492 49.3601 59.486 49.5441 59.486 49.73C59.486 49.9159 59.4492 50.0999 59.3779 50.2715C59.3065 50.4431 59.2019 50.5989 59.07 50.73C58.9427 50.8676 58.7879 50.977 58.6157 51.0511C58.4434 51.1252 58.2575 51.1623 58.07 51.16L58.05 51.17Z" fill="black"/>
<path d="M44.69 45.9C44.4396 45.9053 44.1926 45.842 43.9758 45.7168C43.7589 45.5916 43.5805 45.4094 43.46 45.19C40.4398 39.7967 38.9593 33.6774 39.18 27.5C39.2006 27.1329 39.3659 26.789 39.6395 26.5435C39.9131 26.298 40.2728 26.1709 40.64 26.19C40.826 26.191 41.0098 26.2299 41.1803 26.3043C41.3508 26.3787 41.5043 26.4871 41.6316 26.6227C41.7588 26.7584 41.8571 26.9186 41.9204 27.0935C41.9838 27.2683 42.0108 27.4543 42 27.64C41.7918 33.2921 43.1409 38.8927 45.9 43.83C45.991 43.9888 46.0497 44.164 46.0728 44.3456C46.0959 44.5271 46.083 44.7115 46.0346 44.888C45.9863 45.0645 45.9036 45.2298 45.7913 45.3743C45.6789 45.5188 45.5392 45.6397 45.38 45.73C45.1705 45.841 44.9371 45.8994 44.7 45.9H44.69Z" fill="black"/>
<path d="M112 44.79C111.72 44.7971 111.445 44.7194 111.209 44.5672C110.974 44.415 110.791 44.1953 110.683 43.937C110.575 43.6786 110.547 43.3937 110.604 43.1194C110.66 42.8452 110.798 42.5944 111 42.4C114.963 38.6086 117.852 33.8363 119.375 28.5675C120.898 23.2987 120.999 17.7209 119.67 12.4C119.631 12.0657 119.715 11.7286 119.906 11.4514C120.097 11.1741 120.381 10.9755 120.708 10.8924C121.034 10.8094 121.379 10.8475 121.679 10.9997C121.979 11.1519 122.214 11.4078 122.34 11.72C123.795 17.5186 123.688 23.5993 122.03 29.3432C120.372 35.0871 117.222 40.2891 112.9 44.42C112.655 44.6493 112.335 44.781 112 44.79V44.79Z" fill="black"/>
<path d="M125.34 39.51C124.979 39.4996 124.637 39.3482 124.386 39.0884C124.136 38.8285 123.997 38.4809 124 38.12C124.014 37.8753 124.097 37.6395 124.24 37.44C127.018 32.4942 128.381 26.8791 128.18 21.21C128.172 20.8421 128.309 20.4857 128.562 20.2181C128.814 19.9504 129.162 19.7931 129.53 19.78C129.71 19.7747 129.889 19.8049 130.057 19.8688C130.226 19.9328 130.38 20.0293 130.511 20.1528C130.642 20.2763 130.747 20.4245 130.821 20.5887C130.894 20.7529 130.935 20.9301 130.94 21.11C131.169 27.2907 129.68 33.4139 126.64 38.8C126.513 39.0297 126.324 39.2185 126.093 39.3442C125.863 39.47 125.602 39.5275 125.34 39.51V39.51Z" fill="black"/>
</svg>
