<svg width="170" height="188" viewBox="0 0 170 188" fill="none" xmlns="http://www.w3.org/2000/svg">
<path d="M48.44 139.32H38.24V125.78H48.24V128.5H42.24V131H48V133.72H42.32V136.61H48.44V139.32Z" fill="#D30119"/>
<path d="M61.72 139.32H57.38L55.46 136.49L53.54 139.32H49.69L53.54 134.43L49.62 129.38H53.94L55.78 132.08L57.63 129.38H61.48L57.72 134.09L61.72 139.32Z" fill="#D30119"/>
<path d="M73.9 134.28C73.9031 134.93 73.8087 135.578 73.62 136.2C73.4352 136.807 73.144 137.375 72.76 137.88C72.3574 138.384 71.8441 138.787 71.26 139.06C70.0992 139.54 68.8118 139.621 67.6 139.29C67.2097 139.143 66.8347 138.959 66.48 138.74V143.84H63V129.38H66.51V130.27C66.8634 129.964 67.2571 129.709 67.68 129.51C68.2266 129.28 68.8175 129.174 69.41 129.2C70.1535 129.203 70.8848 129.389 71.54 129.74C72.262 130.12 72.8593 130.699 73.26 131.41C73.7266 132.292 73.9476 133.283 73.9 134.28V134.28ZM70.2 134.36C70.2218 133.858 70.1259 133.358 69.92 132.9C69.768 132.56 69.5125 132.276 69.19 132.09C68.9073 131.926 68.5866 131.84 68.26 131.84C67.9157 131.829 67.5734 131.897 67.26 132.04C66.9916 132.177 66.7399 132.345 66.51 132.54V136.34C66.64 136.4 66.77 136.48 66.91 136.56L67.33 136.77C67.4744 136.833 67.6253 136.88 67.78 136.91C67.9469 136.951 68.1182 136.971 68.29 136.97C68.5605 136.972 68.8276 136.909 69.0693 136.787C69.3109 136.666 69.5202 136.488 69.68 136.27C70.0644 135.711 70.2478 135.037 70.2 134.36Z" fill="#D30119"/>
<path d="M86 135.2H79C79.1379 135.8 79.4944 136.328 80 136.68C80.5292 137.063 81.167 137.266 81.82 137.26C83.1833 137.212 84.5203 136.871 85.74 136.26V138.44C85.1393 138.738 84.5135 138.982 83.87 139.17C82.9557 139.404 82.0136 139.512 81.07 139.49C79.9898 139.525 78.9178 139.291 77.95 138.81C77.1369 138.41 76.4589 137.781 76 137C75.5631 136.186 75.3427 135.274 75.36 134.35C75.3424 133.436 75.563 132.533 76 131.73C76.4418 130.94 77.1155 130.305 77.93 129.91C78.8834 129.436 79.9351 129.192 81 129.2C81.8088 129.198 82.608 129.376 83.34 129.72C84.1155 130.093 84.7628 130.689 85.2 131.43C85.7196 132.364 85.9722 133.422 85.93 134.49L86 135.2ZM82.7 133.46C82.7287 132.909 82.5583 132.366 82.22 131.93C82.0525 131.737 81.8427 131.585 81.6067 131.486C81.3708 131.387 81.1153 131.344 80.86 131.36C80.5954 131.348 80.3314 131.394 80.0863 131.494C79.8411 131.594 79.6206 131.746 79.44 131.94C79.0686 132.357 78.8748 132.902 78.9 133.46H82.7Z" fill="#D30119"/>
<path d="M96.47 129.91L95.18 133.44C94.757 132.983 94.1718 132.71 93.55 132.68C93.074 132.671 92.6138 132.851 92.27 133.18C91.803 133.718 91.4615 134.354 91.27 135.04V139.32H87.71V129.38H91.23V131.78C91.4876 131.11 91.8867 130.502 92.4 130C92.6576 129.73 92.9682 129.516 93.3123 129.371C93.6565 129.227 94.0268 129.155 94.4 129.16C94.7415 129.159 95.0805 129.22 95.4 129.34C95.7717 129.5 96.1296 129.691 96.47 129.91V129.91Z" fill="#D30119"/>
<path d="M105.2 138.74C104.715 138.96 104.209 139.131 103.69 139.25C103.089 139.405 102.471 139.485 101.85 139.49C99.31 139.49 98.05 138.26 98.05 135.78V131.78H96.46V131.16L101.17 126.36H101.57V129.36H104.93V131.8H101.57V135C101.568 135.301 101.591 135.603 101.64 135.9C101.692 136.133 101.832 136.337 102.03 136.47C102.331 136.65 102.681 136.731 103.03 136.7C103.81 136.637 104.566 136.397 105.24 136L105.2 138.74Z" fill="#D30119"/>
<path d="M110.48 139.32H107V129.38H110.52L110.48 139.32ZM110.2 127.08C110.19 127.458 110.032 127.817 109.76 128.08C109.622 128.217 109.458 128.326 109.278 128.4C109.098 128.473 108.905 128.511 108.71 128.51C108.452 128.509 108.198 128.441 107.974 128.313C107.75 128.185 107.563 128.002 107.43 127.78C107.302 127.551 107.236 127.292 107.24 127.03C107.242 126.843 107.282 126.659 107.355 126.487C107.429 126.316 107.536 126.16 107.67 126.03C107.797 125.891 107.952 125.781 108.124 125.705C108.296 125.629 108.482 125.59 108.67 125.59C108.866 125.586 109.061 125.624 109.241 125.699C109.422 125.775 109.585 125.888 109.72 126.03C109.869 126.162 109.988 126.324 110.071 126.504C110.153 126.685 110.197 126.881 110.2 127.08V127.08Z" fill="#D30119"/>
<path d="M120.72 136.42C120.733 136.842 120.649 137.261 120.476 137.645C120.303 138.03 120.044 138.37 119.72 138.64C118.856 139.277 117.79 139.579 116.72 139.49C116.048 139.504 115.376 139.437 114.72 139.29C114.082 139.14 113.454 138.95 112.84 138.72V136.22C113.338 136.513 113.856 136.77 114.39 136.99C114.844 137.174 115.33 137.266 115.82 137.26C116.7 137.26 117.14 137.02 117.14 136.53C117.14 136.449 117.122 136.369 117.09 136.295C117.057 136.221 117.009 136.155 116.95 136.1C116.752 135.926 116.529 135.781 116.29 135.67C115.97 135.51 115.55 135.32 115.02 135.1C114.397 134.829 113.833 134.438 113.36 133.95C112.909 133.473 112.664 132.837 112.68 132.18C112.685 131.669 112.841 131.171 113.13 130.75C113.477 130.259 113.95 129.872 114.5 129.63C115.199 129.325 115.957 129.178 116.72 129.2H117.52C117.932 129.248 118.339 129.325 118.74 129.43C119.225 129.554 119.694 129.732 120.14 129.96V132.39L119.62 132.08C119.438 131.971 119.248 131.877 119.05 131.8C118.786 131.681 118.512 131.587 118.23 131.52C117.903 131.438 117.567 131.398 117.23 131.4C117.083 131.381 116.934 131.392 116.792 131.431C116.649 131.471 116.516 131.538 116.4 131.63C116.265 131.751 116.183 131.92 116.17 132.1C116.175 132.188 116.198 132.274 116.24 132.352C116.281 132.43 116.339 132.497 116.41 132.55C116.715 132.776 117.052 132.955 117.41 133.08C118.069 133.316 118.7 133.624 119.29 134C119.701 134.245 120.045 134.589 120.29 135C120.558 135.426 120.706 135.917 120.72 136.42V136.42Z" fill="#D30119"/>
<path d="M132.86 135.2H125.86C125.998 135.8 126.354 136.328 126.86 136.68C127.389 137.063 128.027 137.266 128.68 137.26C130.043 137.212 131.38 136.871 132.6 136.26V138.44C131.999 138.738 131.374 138.982 130.73 139.17C129.816 139.404 128.874 139.512 127.93 139.49C126.85 139.525 125.778 139.291 124.81 138.81C123.997 138.394 123.326 137.747 122.88 136.95C122.443 136.136 122.223 135.224 122.24 134.3C122.222 133.386 122.443 132.483 122.88 131.68C123.322 130.89 123.995 130.255 124.81 129.86C125.783 129.395 126.852 129.169 127.93 129.2C128.739 129.198 129.538 129.376 130.27 129.72C131.046 130.093 131.693 130.689 132.13 131.43C132.65 132.364 132.902 133.422 132.86 134.49V135.2ZM129.55 133.46C129.582 132.91 129.416 132.367 129.08 131.93C128.913 131.737 128.703 131.585 128.467 131.486C128.231 131.387 127.975 131.344 127.72 131.36C127.455 131.348 127.191 131.394 126.946 131.494C126.701 131.594 126.481 131.746 126.3 131.94C125.929 132.357 125.735 132.902 125.76 133.46H129.55Z" fill="#D30119"/>
<path d="M9.90998 152.68V154.12H5.57998V156.63H9.71998V158.07H5.57998V160.79H9.99998V162.23H3.72998V152.68H9.90998Z" fill="#212121"/>
<path d="M12.72 155.85L14.31 157.85L15.84 155.85H17.84L15.29 159L18.05 162.25H16L14.28 160.14L12.63 162.25H10.63L13.35 159L10.7 155.87L12.72 155.85Z" fill="#212121"/>
<path d="M22.21 155.72C22.6214 155.705 23.031 155.78 23.4108 155.939C23.7906 156.098 24.1315 156.337 24.41 156.64C24.9868 157.295 25.2878 158.148 25.25 159.02C25.2623 159.621 25.1249 160.215 24.85 160.75C24.601 161.242 24.2156 161.651 23.74 161.93C23.2404 162.213 22.6743 162.358 22.1 162.35C21.5778 162.346 21.0639 162.22 20.6 161.98V165.45H18.92V155.85H20.59V156.26C21.058 155.911 21.626 155.721 22.21 155.72V155.72ZM20.6 160.72C20.9519 160.94 21.3553 161.064 21.77 161.08C22.0127 161.089 22.2543 161.042 22.4762 160.944C22.698 160.845 22.8943 160.696 23.05 160.51C23.3792 160.097 23.5463 159.578 23.52 159.05C23.5513 158.508 23.4037 157.97 23.1 157.52C22.9563 157.336 22.7704 157.189 22.5582 157.091C22.3459 156.994 22.1133 156.949 21.88 156.96C21.6892 156.963 21.5001 156.997 21.32 157.06C21.0628 157.168 20.8208 157.309 20.6 157.48V160.72Z" fill="#212121"/>
<path d="M29.44 155.72C29.8548 155.699 30.2691 155.769 30.6542 155.924C31.0393 156.08 31.3859 156.317 31.67 156.62C32.2499 157.32 32.5429 158.213 32.49 159.12V159.37H28C28.0384 159.875 28.2672 160.347 28.64 160.69C29.0608 161.019 29.5871 161.182 30.12 161.15C30.5161 161.15 30.9091 161.079 31.28 160.94C31.688 160.778 32.0743 160.567 32.43 160.31V161.56C31.629 162.103 30.6772 162.379 29.71 162.35C29.2586 162.369 28.8079 162.298 28.3839 162.142C27.96 161.986 27.5712 161.747 27.24 161.44C26.91 161.132 26.6501 160.756 26.4775 160.338C26.305 159.921 26.224 159.471 26.24 159.02C26.2234 158.586 26.2935 158.152 26.4463 157.745C26.5992 157.338 26.8316 156.966 27.13 156.65C27.426 156.339 27.7854 156.094 28.1839 155.934C28.5825 155.774 29.0108 155.701 29.44 155.72V155.72ZM30.91 158.35C30.8936 157.95 30.746 157.567 30.49 157.26C30.3623 157.125 30.2065 157.021 30.0336 156.953C29.8607 156.886 29.6751 156.857 29.49 156.87C29.1197 156.86 28.7605 156.997 28.49 157.25C28.2086 157.552 28.0361 157.939 28 158.35H30.91Z" fill="#212121"/>
<path d="M37.46 155.72C37.6885 155.72 37.9141 155.771 38.12 155.87C38.3941 156.007 38.6495 156.178 38.88 156.38L38.28 157.85C37.9515 157.551 37.54 157.36 37.1 157.3C36.8187 157.311 36.5485 157.413 36.33 157.59C36.0724 157.8 35.8638 158.063 35.7187 158.362C35.5736 158.661 35.4955 158.988 35.49 159.32V162.23H33.81V155.85H35.49V157.47C35.7133 156.974 36.025 156.524 36.41 156.14C36.6912 155.867 37.0684 155.717 37.46 155.72V155.72Z" fill="#212121"/>
<path d="M40.56 152.89C40.8105 152.896 41.0496 152.996 41.23 153.17C41.3201 153.256 41.3915 153.361 41.4397 153.476C41.4879 153.591 41.5118 153.715 41.51 153.84C41.5101 153.965 41.4854 154.088 41.4373 154.203C41.3892 154.318 41.3188 154.422 41.23 154.51C41.1448 154.602 41.0411 154.676 40.9257 154.726C40.8103 154.776 40.6857 154.801 40.56 154.8C40.4344 154.8 40.3102 154.774 40.195 154.724C40.0798 154.674 39.976 154.601 39.89 154.51C39.8012 154.422 39.7307 154.318 39.6827 154.203C39.6346 154.088 39.6099 153.965 39.61 153.84C39.61 153.575 39.7153 153.32 39.9029 153.133C40.0904 152.945 40.3448 152.84 40.61 152.84L40.56 152.89ZM41.4 155.89V162.27H39.72V155.89H41.4Z" fill="#212121"/>
<path d="M46 155.72C46.4147 155.699 46.829 155.769 47.2141 155.924C47.5993 156.08 47.9459 156.317 48.23 156.62C48.8098 157.32 49.1028 158.213 49.05 159.12V159.37H44.52C44.5584 159.875 44.7871 160.347 45.16 160.69C45.5807 161.019 46.107 161.182 46.64 161.15C47.0361 161.15 47.429 161.079 47.8 160.94C48.2079 160.779 48.5942 160.567 48.95 160.31V161.56C48.149 162.103 47.1972 162.379 46.23 162.35C45.7786 162.369 45.3279 162.298 44.9039 162.142C44.48 161.986 44.0912 161.747 43.76 161.44C43.43 161.132 43.17 160.756 42.9975 160.338C42.825 159.921 42.744 159.471 42.76 159.02C42.7433 158.586 42.8135 158.152 42.9663 157.745C43.1191 157.338 43.3515 156.966 43.65 156.65C43.9504 156.333 44.3164 156.086 44.7222 155.925C45.1281 155.765 45.5642 155.695 46 155.72V155.72ZM47.47 158.35C47.4535 157.95 47.3059 157.567 47.05 157.26C46.9223 157.125 46.7664 157.021 46.5936 156.953C46.4207 156.886 46.2351 156.857 46.05 156.87C45.6797 156.86 45.3204 156.997 45.05 157.25C44.7685 157.552 44.5961 157.939 44.56 158.35H47.47Z" fill="#212121"/>
<path d="M54.06 155.72C54.3663 155.708 54.6715 155.763 54.9546 155.88C55.2377 155.997 55.492 156.175 55.7 156.4C56.124 156.889 56.3425 157.523 56.31 158.17V162.23H54.63V158.34C54.6567 157.983 54.5538 157.628 54.34 157.34C54.2427 157.22 54.119 157.124 53.9784 157.06C53.8379 156.996 53.6844 156.965 53.53 156.97C53.269 156.971 53.0144 157.051 52.8 157.2C52.4954 157.426 52.2258 157.695 52 158V162.25H50.36V155.87H52V156.76C52.2721 156.43 52.6135 156.164 53 155.98C53.3281 155.812 53.6912 155.723 54.06 155.72Z" fill="#212121"/>
<path d="M61 155.72C61.6899 155.717 62.3721 155.864 63 156.15V157.58C62.4894 157.259 61.9027 157.08 61.3 157.06C61.032 157.039 60.7626 157.076 60.5104 157.169C60.2582 157.262 60.0291 157.409 59.839 157.599C59.6489 157.789 59.5023 158.018 59.4093 158.27C59.3162 158.523 59.2789 158.792 59.3 159.06C59.2866 159.325 59.3286 159.59 59.4232 159.838C59.5179 160.086 59.6633 160.311 59.85 160.5C60.0441 160.685 60.2733 160.829 60.5241 160.923C60.7749 161.018 61.0422 161.061 61.31 161.05C61.9168 161.014 62.511 160.861 63.06 160.6V162C62.4253 162.261 61.7462 162.397 61.06 162.4C60.1358 162.445 59.2309 162.125 58.54 161.51C58.2106 161.216 57.9503 160.853 57.7774 160.447C57.6046 160.041 57.5235 159.601 57.54 159.16C57.5207 158.707 57.5951 158.254 57.7586 157.831C57.922 157.408 58.171 157.023 58.49 156.7C58.8177 156.372 59.21 156.115 59.6421 155.947C60.0742 155.778 60.5365 155.701 61 155.72V155.72Z" fill="#212121"/>
<path d="M67.25 155.72C67.6646 155.7 68.0788 155.77 68.4638 155.925C68.8488 156.081 69.1955 156.318 69.48 156.62C70.0554 157.322 70.3479 158.214 70.3 159.12V159.37H65.78C65.8184 159.875 66.0471 160.347 66.42 160.69C66.8368 161.019 67.3601 161.183 67.89 161.15C68.2862 161.151 68.6793 161.08 69.05 160.94C69.4579 160.779 69.8442 160.567 70.2 160.31V161.56C69.3998 162.105 68.4474 162.381 67.48 162.35C67.0286 162.369 66.5779 162.298 66.1539 162.142C65.73 161.986 65.3412 161.747 65.01 161.44C64.68 161.132 64.42 160.756 64.2475 160.338C64.075 159.921 63.994 159.471 64.01 159.02C63.9933 158.586 64.0635 158.152 64.2163 157.745C64.3691 157.338 64.6015 156.966 64.9 156.65C65.2004 156.333 65.5664 156.086 65.9722 155.925C66.3781 155.765 66.8142 155.695 67.25 155.72ZM68.72 158.35C68.6957 157.95 68.5451 157.569 68.29 157.26C68.1631 157.124 68.0074 157.019 67.8343 156.951C67.6613 156.884 67.4752 156.856 67.29 156.87C66.9198 156.861 66.561 156.998 66.29 157.25C66.0123 157.554 65.8404 157.94 65.8 158.35H68.72Z" fill="#212121"/>
<path d="M78.67 155.72C79.2985 155.711 79.9198 155.855 80.48 156.14C81.0019 156.403 81.4387 156.809 81.74 157.31C82.0403 157.825 82.1926 158.414 82.18 159.01C82.1932 159.617 82.0484 160.216 81.76 160.75C81.4631 161.255 81.0251 161.661 80.5 161.92C79.9314 162.203 79.305 162.35 78.67 162.35C78.0349 162.35 77.4086 162.203 76.84 161.92C76.3222 161.658 75.8915 161.252 75.6 160.75C75.3036 160.219 75.1551 159.618 75.17 159.01C75.1596 158.409 75.3153 157.818 75.62 157.3C75.9183 156.799 76.3562 156.396 76.88 156.14C77.4334 155.856 78.048 155.712 78.67 155.72V155.72ZM76.93 159C76.9028 159.549 77.0691 160.091 77.4 160.53C77.551 160.717 77.7436 160.865 77.9624 160.964C78.1812 161.063 78.42 161.11 78.66 161.1C78.9025 161.111 79.1443 161.067 79.3676 160.972C79.5908 160.877 79.7899 160.732 79.95 160.55C80.2893 160.103 80.4561 159.55 80.42 158.99C80.4543 158.449 80.2869 157.915 79.95 157.49C79.7875 157.312 79.5876 157.172 79.3645 157.08C79.1414 156.988 78.9008 156.947 78.66 156.96C78.4226 156.951 78.1865 156.997 77.9698 157.094C77.753 157.192 77.5615 157.337 77.41 157.52C77.075 157.938 76.9044 158.465 76.93 159V159Z" fill="#212121"/>
<path d="M85.1499 155.85V159.85C85.1372 160.019 85.158 160.19 85.2112 160.351C85.2644 160.512 85.3489 160.661 85.4599 160.79C85.5668 160.901 85.6961 160.988 85.8392 161.045C85.9824 161.102 86.1361 161.127 86.2899 161.12C86.5797 161.115 86.8615 161.025 87.0999 160.86C87.3698 160.676 87.587 160.424 87.73 160.13V155.9H89.41V162.28H87.73V161.41C87.4882 161.711 87.1844 161.956 86.8392 162.129C86.494 162.301 86.1157 162.397 85.73 162.41C85.4215 162.423 85.1139 162.37 84.8276 162.254C84.5414 162.139 84.2831 161.963 84.0699 161.74C83.6445 161.259 83.4222 160.632 83.4499 159.99V155.91L85.1499 155.85Z" fill="#212121"/>
<path d="M94.74 155.72C94.9682 155.722 95.1934 155.773 95.4 155.87C95.6741 156.007 95.9295 156.178 96.16 156.38L95.55 157.85C95.2253 157.551 94.817 157.36 94.38 157.3C94.0984 157.309 93.8277 157.411 93.61 157.59C93.3494 157.796 93.1405 158.059 93 158.36C92.8473 158.671 92.7686 159.013 92.77 159.36V162.27H91.09V155.89H92.77V157.51C92.9932 157.014 93.305 156.564 93.69 156.18C93.826 156.038 93.9887 155.924 94.169 155.845C94.3492 155.766 94.5432 155.724 94.74 155.72V155.72Z" fill="#212121"/>
<path d="M103.69 155.72C104.105 155.7 104.519 155.77 104.904 155.925C105.289 156.081 105.636 156.318 105.92 156.62C106.495 157.322 106.788 158.214 106.74 159.12V159.37H102.22C102.258 159.875 102.487 160.347 102.86 160.69C103.278 161.017 103.8 161.181 104.33 161.15C104.726 161.151 105.119 161.08 105.49 160.94C105.899 160.781 106.286 160.569 106.64 160.31V161.56C105.84 162.106 104.888 162.383 103.92 162.35C103.009 162.386 102.12 162.059 101.45 161.44C101.122 161.13 100.863 160.755 100.69 160.337C100.518 159.92 100.436 159.471 100.45 159.02C100.431 158.586 100.5 158.153 100.651 157.746C100.802 157.339 101.033 156.967 101.33 156.65C101.632 156.332 101.999 156.084 102.407 155.923C102.815 155.763 103.253 155.693 103.69 155.72V155.72ZM105.16 158.35C105.132 157.953 104.985 157.573 104.74 157.26C104.612 157.126 104.456 157.022 104.283 156.954C104.11 156.887 103.925 156.858 103.74 156.87C103.556 156.864 103.373 156.894 103.202 156.959C103.03 157.024 102.873 157.123 102.74 157.25C102.459 157.552 102.286 157.939 102.25 158.35H105.16Z" fill="#212121"/>
<path d="M109.26 155.85L110.85 157.85L112.38 155.85H114.38L111.84 159L114.59 162.25H112.59L110.86 160.14L109.22 162.25H107.22L109.87 159L107.22 155.87L109.26 155.85Z" fill="#212121"/>
<path d="M118.75 155.72C119.162 155.704 119.572 155.778 119.952 155.937C120.332 156.096 120.672 156.336 120.95 156.64C121.527 157.295 121.828 158.148 121.79 159.02C121.801 159.62 121.667 160.213 121.4 160.75C121.147 161.242 120.759 161.652 120.28 161.93C119.781 162.215 119.214 162.36 118.64 162.35C118.118 162.346 117.604 162.22 117.14 161.98V165.45H115.46V155.85H117.13V156.26C117.598 155.911 118.166 155.721 118.75 155.72V155.72ZM117.14 160.72C117.495 160.941 117.902 161.065 118.32 161.08C118.561 161.089 118.801 161.042 119.022 160.943C119.242 160.845 119.436 160.696 119.59 160.51C119.922 160.098 120.093 159.579 120.07 159.05C120.103 158.506 119.951 157.967 119.64 157.52C119.498 157.336 119.314 157.189 119.104 157.092C118.893 156.994 118.662 156.949 118.43 156.96C118.236 156.962 118.043 156.996 117.86 157.06C117.605 157.173 117.364 157.314 117.14 157.48V160.72Z" fill="#212121"/>
<path d="M126 155.72C126.415 155.7 126.829 155.77 127.214 155.925C127.599 156.081 127.945 156.318 128.23 156.62C128.805 157.322 129.098 158.214 129.05 159.12V159.37H124.53C124.568 159.875 124.797 160.347 125.17 160.69C125.588 161.017 126.11 161.181 126.64 161.15C127.036 161.151 127.429 161.08 127.8 160.94C128.208 160.779 128.594 160.567 128.95 160.31V161.56C128.15 162.105 127.197 162.381 126.23 162.35C125.779 162.369 125.328 162.298 124.904 162.142C124.48 161.986 124.091 161.747 123.76 161.44C123.432 161.13 123.173 160.755 123 160.337C122.828 159.92 122.746 159.471 122.76 159.02C122.741 158.586 122.81 158.153 122.961 157.746C123.112 157.339 123.343 156.967 123.64 156.65C123.942 156.332 124.309 156.084 124.717 155.923C125.125 155.763 125.563 155.693 126 155.72V155.72ZM127.47 158.35C127.446 157.95 127.295 157.569 127.04 157.26C126.913 157.124 126.757 157.019 126.584 156.951C126.411 156.884 126.225 156.856 126.04 156.87C125.67 156.861 125.311 156.998 125.04 157.25C124.762 157.553 124.593 157.94 124.56 158.35H127.47Z" fill="#212121"/>
<path d="M134 155.72C134.228 155.722 134.453 155.773 134.66 155.87C134.929 156.01 135.181 156.181 135.41 156.38L134.81 157.85C134.481 157.551 134.07 157.359 133.63 157.3C133.351 157.309 133.084 157.411 132.87 157.59C132.606 157.792 132.396 158.057 132.26 158.36C132.103 158.669 132.024 159.013 132.03 159.36V162.27H130.35V155.89H132V157.51C132.22 157.012 132.532 156.561 132.92 156.18C133.059 156.034 133.227 155.918 133.413 155.839C133.598 155.76 133.798 155.72 134 155.72V155.72Z" fill="#212121"/>
<path d="M137.1 152.89C137.225 152.889 137.348 152.914 137.463 152.962C137.579 153.01 137.683 153.081 137.77 153.17C137.86 153.256 137.932 153.361 137.98 153.476C138.028 153.591 138.052 153.715 138.05 153.84C138.047 154.089 137.95 154.328 137.78 154.51C137.693 154.603 137.587 154.676 137.47 154.726C137.353 154.776 137.227 154.801 137.1 154.8C136.976 154.799 136.854 154.773 136.74 154.723C136.627 154.673 136.524 154.601 136.44 154.51C136.262 154.331 136.159 154.092 136.15 153.84C136.15 153.583 136.248 153.336 136.425 153.15C136.602 152.964 136.844 152.853 137.1 152.84V152.89ZM137.94 155.89V162.27H136.26V155.89H137.94Z" fill="#212121"/>
<path d="M142.54 155.72C142.955 155.7 143.369 155.77 143.754 155.925C144.139 156.081 144.485 156.318 144.77 156.62C145.345 157.322 145.638 158.214 145.59 159.12V159.37H141.07C141.108 159.875 141.337 160.347 141.71 160.69C142.128 161.017 142.65 161.181 143.18 161.15C143.576 161.151 143.969 161.08 144.34 160.94C144.748 160.779 145.134 160.567 145.49 160.31V161.56C144.69 162.105 143.737 162.381 142.77 162.35C142.319 162.369 141.868 162.298 141.444 162.142C141.02 161.986 140.631 161.747 140.3 161.44C139.972 161.13 139.713 160.755 139.54 160.337C139.368 159.92 139.286 159.471 139.3 159.02C139.281 158.586 139.35 158.153 139.501 157.746C139.652 157.339 139.883 156.967 140.18 156.65C140.482 156.332 140.849 156.084 141.257 155.923C141.665 155.763 142.103 155.693 142.54 155.72V155.72ZM144.01 158.35C143.986 157.95 143.835 157.569 143.58 157.26C143.453 157.124 143.297 157.019 143.124 156.951C142.951 156.884 142.765 156.856 142.58 156.87C142.21 156.861 141.851 156.998 141.58 157.25C141.302 157.553 141.133 157.94 141.1 158.35H144.01Z" fill="#212121"/>
<path d="M150.6 155.72C150.906 155.707 151.212 155.761 151.495 155.878C151.779 155.996 152.033 156.174 152.24 156.4C152.664 156.889 152.883 157.523 152.85 158.17V162.23H151.18V158.34C151.204 157.981 151.097 157.626 150.88 157.34C150.783 157.22 150.659 157.124 150.518 157.06C150.378 156.996 150.224 156.965 150.07 156.97C149.809 156.972 149.555 157.052 149.34 157.2C149.053 157.415 148.801 157.671 148.59 157.96V162.21H146.91V155.83H148.59V156.72C148.849 156.397 149.173 156.132 149.54 155.94C149.872 155.787 150.234 155.711 150.6 155.72V155.72Z" fill="#212121"/>
<path d="M157.54 155.72C158.23 155.715 158.913 155.862 159.54 156.15V157.58C159.03 157.258 158.443 157.078 157.84 157.06C157.582 157.05 157.325 157.093 157.084 157.186C156.844 157.279 156.624 157.42 156.44 157.6C156.085 157.998 155.889 158.512 155.889 159.045C155.889 159.578 156.085 160.092 156.44 160.49C156.635 160.676 156.866 160.821 157.119 160.915C157.371 161.01 157.641 161.052 157.91 161.04C158.516 161.002 159.11 160.849 159.66 160.59V162C159.009 162.265 158.313 162.401 157.61 162.4C156.686 162.442 155.783 162.123 155.09 161.51C154.761 161.216 154.5 160.853 154.327 160.447C154.155 160.041 154.073 159.601 154.09 159.16C154.069 158.707 154.141 158.255 154.303 157.832C154.465 157.409 154.712 157.023 155.03 156.7C155.358 156.372 155.75 156.115 156.182 155.947C156.614 155.778 157.077 155.701 157.54 155.72V155.72Z" fill="#212121"/>
<path d="M163.79 155.72C164.205 155.7 164.619 155.77 165.004 155.925C165.389 156.081 165.735 156.318 166.02 156.62C166.6 157.32 166.893 158.213 166.84 159.12V159.37H162.32C162.358 159.875 162.587 160.347 162.96 160.69C163.378 161.017 163.9 161.181 164.43 161.15C164.826 161.152 165.22 161.081 165.59 160.94C165.999 160.781 166.386 160.569 166.74 160.31V161.56C165.94 162.106 164.988 162.383 164.02 162.35C163.57 162.369 163.121 162.298 162.699 162.142C162.276 161.986 161.889 161.747 161.56 161.44C161.23 161.132 160.97 160.756 160.798 160.338C160.625 159.921 160.544 159.471 160.56 159.02C160.541 158.586 160.61 158.153 160.761 157.746C160.912 157.339 161.143 156.967 161.44 156.65C161.74 156.333 162.106 156.086 162.512 155.925C162.918 155.765 163.354 155.695 163.79 155.72V155.72ZM165.26 158.35C165.232 157.953 165.085 157.573 164.84 157.26C164.712 157.126 164.556 157.022 164.383 156.954C164.21 156.887 164.025 156.858 163.84 156.87C163.469 156.859 163.11 156.996 162.84 157.25C162.559 157.552 162.386 157.939 162.35 158.35H165.26Z" fill="#212121"/>
<path d="M124.2 89.7H45.8C44.7126 89.7013 43.6357 89.4885 42.6306 89.0736C41.6255 88.6587 40.712 88.0499 39.9422 87.2819C39.1724 86.514 38.5614 85.6019 38.1441 84.5979C37.7268 83.5938 37.5113 82.5174 37.51 81.43V88.85C37.5047 89.9387 37.7139 91.0177 38.1257 92.0255C38.5374 93.0333 39.1437 93.9501 39.9098 94.7237C40.6758 95.4972 41.5868 96.1122 42.5906 96.5337C43.5944 96.9551 44.6713 97.1748 45.76 97.18H124.2C126.4 97.1853 128.511 96.3173 130.071 94.7667C131.631 93.216 132.512 91.1096 132.52 88.91V81.38C132.528 83.5769 131.664 85.6872 130.117 87.2472C128.57 88.8072 126.467 89.6894 124.27 89.7H124.2Z" fill="white"/>
<path d="M68.41 16.46C67.768 16.473 67.1566 16.7366 66.7062 17.1944C66.2559 17.6521 66.0025 18.2679 66 18.91V37.69H73V26.12H95.51V37.69H102.51V18.87C102.51 18.2305 102.26 17.6162 101.814 17.1584C101.367 16.7007 100.759 16.4356 100.12 16.42L68.41 16.46Z" fill="#D30119"/>
<path d="M102.48 39H95.48C95.3189 39 95.1595 38.9681 95.0108 38.9062C94.8621 38.8443 94.7272 38.7535 94.6138 38.6391C94.5003 38.5248 94.4107 38.3891 94.35 38.2399C94.2892 38.0908 94.2587 37.9311 94.26 37.77V27.39H74.26V37.69C74.26 37.8541 74.2273 38.0165 74.1636 38.1677C74.0999 38.319 74.0066 38.4559 73.8892 38.5705C73.7718 38.6851 73.6326 38.7751 73.4799 38.8351C73.3272 38.8951 73.164 38.924 73 38.92H66C65.677 38.9337 65.3616 38.8196 65.1221 38.6025C64.8825 38.3854 64.7381 38.0828 64.72 37.76V37.69V18.87C64.7187 18.3872 64.8126 17.9089 64.9965 17.4625C65.1803 17.0161 65.4504 16.6103 65.7914 16.2685C66.1323 15.9266 66.5373 15.6554 66.9832 15.4703C67.4291 15.2853 67.9072 15.19 68.39 15.19H100.06C100.543 15.19 101.021 15.2853 101.467 15.4703C101.913 15.6554 102.318 15.9266 102.659 16.2685C103 16.6103 103.27 17.0161 103.453 17.4625C103.637 17.9089 103.731 18.3872 103.73 18.87V37.69C103.731 37.8511 103.701 38.0108 103.64 38.16C103.579 38.3091 103.49 38.4448 103.376 38.5591C103.263 38.6735 103.128 38.7643 102.979 38.8262C102.831 38.8881 102.671 38.92 102.51 38.92L102.48 39ZM96.78 36.45H101.21V18.87C101.192 18.5817 101.066 18.3108 100.856 18.1122C100.646 17.9136 100.369 17.802 100.08 17.8H68.41C68.1138 17.8052 67.8315 17.9266 67.6239 18.138C67.4162 18.3493 67.2999 18.6337 67.3 18.93V36.42H71.71V26.12C71.71 25.7955 71.8382 25.4842 72.0667 25.2538C72.2952 25.0234 72.6055 24.8926 72.93 24.89H95.51C95.8362 24.89 96.1491 25.0196 96.3797 25.2503C96.6104 25.4809 96.74 25.7938 96.74 26.12L96.78 36.45Z" fill="black"/>
<path d="M124.39 33.84H45.59C40.995 33.84 37.27 37.565 37.27 42.16V81.71C37.27 86.305 40.995 90.03 45.59 90.03H124.39C128.985 90.03 132.71 86.305 132.71 81.71V42.16C132.71 37.565 128.985 33.84 124.39 33.84Z" fill="#D30119"/>
<path d="M49.7982 54.8364L81.6567 43.9102L85.4847 55.072L53.6263 65.9982L49.7982 54.8364Z" fill="white"/>
<path d="M102.59 79.4C107.561 79.4 111.59 75.3706 111.59 70.4C111.59 65.4295 107.561 61.4 102.59 61.4C97.6194 61.4 93.59 65.4295 93.59 70.4C93.59 75.3706 97.6194 79.4 102.59 79.4Z" fill="white"/>
<path d="M124.41 98.81H45.59C43.0482 98.8047 40.612 97.7926 38.8147 95.9953C37.0174 94.198 36.0053 91.7618 36 89.22V42.15C36.0053 39.6082 37.0174 37.172 38.8147 35.3747C40.612 33.5773 43.0482 32.5653 45.59 32.56H124.41C126.952 32.5653 129.388 33.5773 131.185 35.3747C132.983 37.172 133.995 39.6082 134 42.15V89.22C133.995 91.7618 132.983 94.198 131.185 95.9953C129.388 97.7926 126.952 98.8047 124.41 98.81ZM45.59 35.11C43.7375 35.1231 41.9646 35.8648 40.6547 37.1747C39.3448 38.4846 38.6031 40.2575 38.59 42.11V89.22C38.6031 91.0725 39.3448 92.8453 40.6547 94.1553C41.9646 95.4652 43.7375 96.2069 45.59 96.22H124.41C126.262 96.2069 128.035 95.4652 129.345 94.1553C130.655 92.8453 131.397 91.0725 131.41 89.22V42.15C131.397 40.2975 130.655 38.5246 129.345 37.2147C128.035 35.9048 126.262 35.1631 124.41 35.15L45.59 35.11Z" fill="black"/>
</svg>
